<?xml version="1.0" encoding="UTF-8"?>
<svg width="157px" height="56px" viewBox="0 0 157 56" version="1.1" xmlns="http://www.w3.org/2000/svg" xmlns:xlink="http://www.w3.org/1999/xlink">
    <!-- Generator: Sketch 61.2 (89653) - https://sketch.com -->
    <title>email</title>
    <desc>Created with Sketch.</desc>
    <g id="email" stroke="none" stroke-width="1" fill="none" fill-rule="evenodd">
        <path d="M100.799085,49.5047349 C101.375949,49.5047349 101.849802,49.5747826 102.220643,49.7148781 C102.591484,49.8549736 102.898458,50.048635 103.141565,50.2958624 C103.37643,50.5307284 103.547429,50.807829 103.654561,51.1271643 C103.761693,51.4464997 103.815259,51.7812867 103.815259,52.1315255 L103.815259,52.1315255 L103.815259,52.5332699 L99.6371168,52.5332699 L99.6419996,52.7806209 C99.671296,53.5045025 99.8324264,54.0648433 100.125391,54.4616432 C100.450907,54.902532 100.968024,55.1229764 101.676742,55.1229764 C102.064065,55.1229764 102.412244,55.0168746 102.721278,54.8046712 C103.030312,54.5924677 103.294021,54.323608 103.512406,53.9980919 L103.512406,53.9980919 L103.982138,54.3380296 L103.868374,54.5116681 C103.74901,54.6827958 103.612842,54.8463908 103.45987,55.0024531 C103.255907,55.2105361 103.024132,55.3887458 102.764543,55.5370822 C102.488472,55.6936595 102.209311,55.8121226 101.92706,55.8924715 C101.644809,55.9728204 101.320323,56.0129948 100.953602,56.0129948 C100.343775,56.0129948 99.8173868,55.9264653 99.3744378,55.7534061 C98.9314888,55.580347 98.5657983,55.3475412 98.2773664,55.0549889 C97.9889345,54.7624365 97.7736407,54.4173483 97.631485,54.0197243 C97.4893292,53.6221004 97.4182514,53.1904826 97.4182514,52.7248711 C97.4182514,52.3045846 97.4955099,51.90181 97.650027,51.5165474 C97.8045441,51.1312848 98.0239584,50.7882569 98.3082698,50.4874636 C98.5884608,50.1949112 98.9417899,49.957985 99.3682571,49.776685 C99.7947243,49.5953849 100.271667,49.5047349 100.799085,49.5047349 Z M61.0648433,49.5047349 C61.4645275,49.5047349 61.8312481,49.5284275 62.165005,49.5758127 C62.4987619,49.623198 62.7995552,49.7210588 63.0673848,49.8693952 C63.3228531,50.0136112 63.5257855,50.2227243 63.6761822,50.4967346 C63.8265788,50.7707449 63.9017771,51.1281945 63.9017771,51.5690832 C63.9017771,52.0346947 63.8925061,52.5868358 63.873964,53.2255065 C63.855422,53.8641771 63.846151,54.2844636 63.846151,54.486366 C63.846151,54.6717865 63.873964,54.8180627 63.9295902,54.9251945 C63.9852164,55.0323264 64.0707158,55.1126752 64.1860886,55.1662412 C64.2561363,55.1992048 64.3663585,55.218777 64.5167552,55.2249577 C64.6671518,55.2311384 64.8041569,55.2342287 64.9277706,55.2342287 L64.9277706,55.2342287 L64.9277706,55.6854186 L64.7856149,55.7429762 C64.6372785,55.799375 64.4704,55.8522971 64.2849795,55.9017425 C64.0377522,55.9676698 63.7761032,56.0006335 63.5000327,56.0006335 C62.9932166,56.0006335 62.6203154,55.9254352 62.3813289,55.7750385 C62.1423425,55.6246419 61.9795845,55.4093481 61.8930549,55.1291571 L61.8930549,55.1291571 L61.8559708,55.1291571 L61.7175922,55.2623851 C61.6264843,55.3466256 61.5376656,55.4217094 61.451136,55.4876367 C61.3213417,55.5865277 61.1822763,55.670997 61.0339399,55.7410448 C60.8402784,55.8316948 60.6538278,55.8986522 60.474588,55.941917 C60.2953482,55.9851818 60.0450305,56.0068142 59.7236349,56.0068142 C59.245662,56.0068142 58.8377369,55.8656885 58.4998595,55.5834373 C58.1619822,55.3011861 57.9930435,54.9272547 57.9930435,54.4616432 C57.9930435,54.1938136 58.0301276,53.9661584 58.1042958,53.7786777 C58.178464,53.5911969 58.2835356,53.4253486 58.4195106,53.2811326 C58.5431243,53.149278 58.6863102,53.040086 58.8490682,52.9535564 C59.0118262,52.8670268 59.1900359,52.7866779 59.3836973,52.7125097 C59.7545383,52.5765347 60.1995476,52.4354091 60.718725,52.2891329 C61.2379024,52.1428567 61.6169844,52.0120322 61.8559708,51.8966595 L61.8559708,51.8966595 L61.8559708,51.3033138 L61.8544256,51.2198746 C61.8513353,51.1302547 61.8436094,51.0220927 61.8312481,50.8953887 C61.8147662,50.72645 61.7797424,50.5842943 61.7261764,50.4689215 C61.6684901,50.3370669 61.57784,50.2258146 61.4542264,50.1351646 C61.3306127,50.0445146 61.1678547,49.9991896 60.9659523,49.9991896 C60.7846523,49.9991896 60.6332255,50.0249424 60.5116721,50.0764481 C60.3901186,50.1279538 60.2922578,50.1804896 60.2180896,50.2340556 C60.230451,50.3164647 60.2654749,50.4421386 60.3231612,50.6110773 C60.3808476,50.7800159 60.4096908,50.942774 60.4096908,51.0993513 C60.4096908,51.169399 60.3911488,51.2569587 60.3540647,51.3620303 C60.3169806,51.467102 60.2634146,51.5505412 60.1933669,51.612348 C60.0985964,51.6947571 59.9924947,51.7586242 59.8750617,51.8039492 C59.7576287,51.8492742 59.5773587,51.8719367 59.3342518,51.8719367 C58.9881336,51.8719367 58.7264846,51.7884975 58.549305,51.621619 C58.3721254,51.4547406 58.2835356,51.2373865 58.2835356,50.9695569 C58.2835356,50.7388114 58.3752157,50.5317585 58.558576,50.3483982 C58.7419363,50.1650379 58.965471,50.0136112 59.2291802,49.8941179 C59.4887689,49.7705043 59.787502,49.6747037 60.1253794,49.6067162 C60.4632567,49.5387286 60.7764114,49.5047349 61.0648433,49.5047349 Z M113.803931,49.5047349 C114.203615,49.5047349 114.570335,49.5284275 114.904092,49.5758127 C115.237849,49.623198 115.538643,49.7210588 115.806472,49.8693952 C116.06194,50.0136112 116.264873,50.2227243 116.41527,50.4967346 C116.565666,50.7707449 116.640864,51.1281945 116.640864,51.5690832 C116.640864,52.0346947 116.631593,52.5868358 116.613051,53.2255065 C116.594509,53.8641771 116.585238,54.2844636 116.585238,54.486366 C116.585238,54.6717865 116.613051,54.8180627 116.668678,54.9251945 C116.724304,55.0323264 116.809803,55.1126752 116.925176,55.1662412 C116.995224,55.1992048 117.105446,55.218777 117.255843,55.2249577 C117.406239,55.2311384 117.543244,55.2342287 117.666858,55.2342287 L117.666858,55.2342287 L117.666858,55.6854186 L117.524702,55.7429762 C117.376366,55.799375 117.209487,55.8522971 117.024067,55.9017425 C116.77684,55.9676698 116.515191,56.0006335 116.23912,56.0006335 C115.732304,56.0006335 115.359403,55.9254352 115.120416,55.7750385 C114.88143,55.6246419 114.718672,55.4093481 114.632142,55.1291571 L114.632142,55.1291571 L114.595058,55.1291571 L114.45668,55.2623851 C114.365572,55.3466256 114.276753,55.4217094 114.190223,55.4876367 C114.060429,55.5865277 113.921364,55.670997 113.773027,55.7410448 C113.579366,55.8316948 113.392915,55.8986522 113.213675,55.941917 C113.034436,55.9851818 112.784118,56.0068142 112.462722,56.0068142 C111.984749,56.0068142 111.576824,55.8656885 111.238947,55.5834373 C110.90107,55.3011861 110.732131,54.9272547 110.732131,54.4616432 C110.732131,54.1938136 110.769215,53.9661584 110.843383,53.7786777 C110.917551,53.5911969 111.022623,53.4253486 111.158598,53.2811326 C111.282212,53.149278 111.425398,53.040086 111.588156,52.9535564 C111.750914,52.8670268 111.929123,52.7866779 112.122785,52.7125097 C112.493626,52.5765347 112.938635,52.4354091 113.457812,52.2891329 C113.97699,52.1428567 114.356072,52.0120322 114.595058,51.8966595 L114.595058,51.8966595 L114.595058,51.3033138 L114.593513,51.2198746 C114.590423,51.1302547 114.582697,51.0220927 114.570335,50.8953887 C114.553854,50.72645 114.51883,50.5842943 114.465264,50.4689215 C114.407577,50.3370669 114.316927,50.2258146 114.193314,50.1351646 C114.0697,50.0445146 113.906942,49.9991896 113.70504,49.9991896 C113.52374,49.9991896 113.372313,50.0249424 113.250759,50.0764481 C113.129206,50.1279538 113.031345,50.1804896 112.957177,50.2340556 C112.969538,50.3164647 113.004562,50.4421386 113.062249,50.6110773 C113.119935,50.7800159 113.148778,50.942774 113.148778,51.0993513 C113.148778,51.169399 113.130236,51.2569587 113.093152,51.3620303 C113.056068,51.467102 113.002502,51.5505412 112.932454,51.612348 C112.837684,51.6947571 112.731582,51.7586242 112.614149,51.8039492 C112.496716,51.8492742 112.316446,51.8719367 112.073339,51.8719367 C111.727221,51.8719367 111.465572,51.7884975 111.288392,51.621619 C111.111213,51.4547406 111.022623,51.2373865 111.022623,50.9695569 C111.022623,50.7388114 111.114303,50.5317585 111.297663,50.3483982 C111.481024,50.1650379 111.704558,50.0136112 111.968268,49.8941179 C112.227856,49.7705043 112.526589,49.6747037 112.864467,49.6067162 C113.202344,49.5387286 113.515499,49.5047349 113.803931,49.5047349 Z M122.336708,47.8359503 L122.336708,49.7086974 L124.067299,49.7086974 L124.067299,50.3762113 L122.349069,50.3762113 L122.349069,53.763226 L122.352208,53.937444 C122.366855,54.3286298 122.432766,54.6125549 122.549941,54.7892195 C122.683856,54.9911218 122.923873,55.092073 123.269991,55.092073 C123.381243,55.092073 123.535761,55.0838321 123.733542,55.0673502 C123.931324,55.0508684 124.06936,55.0323264 124.147648,55.0117241 L124.147648,55.0117241 L124.147648,55.5309015 L123.877758,55.6424972 C123.693711,55.7143763 123.501423,55.7812192 123.300895,55.843026 C123.000101,55.9357363 122.633381,55.9820914 122.200733,55.9820914 C121.557942,55.9820914 121.080999,55.8255141 120.769905,55.5123595 C120.45881,55.1992048 120.303263,54.7521354 120.303263,54.1711511 L120.303263,54.1711511 L120.303263,50.3762113 L119.19074,50.3762113 L119.19074,49.7086974 L120.327986,49.7086974 L120.327986,47.8359503 L122.336708,47.8359503 Z M92.5197162,49.5170962 C93.141905,49.5170962 93.620908,49.7004565 93.9567251,50.0671771 C94.2925423,50.4338977 94.4604509,50.9551353 94.4604509,51.6308901 L94.4604509,51.6308901 L94.4604509,54.6347024 L94.4647001,54.7434438 C94.4731985,54.8465839 94.4944446,54.9329204 94.5284384,55.0024531 C94.5737634,55.0951633 94.6561725,55.1662412 94.7756657,55.2156866 C94.841593,55.2445298 94.922972,55.273373 95.0198027,55.3022162 C95.1166335,55.3310594 95.2289159,55.3516617 95.35665,55.3640231 L95.35665,55.3640231 L95.35665,55.815213 L91.6729625,55.815213 L91.6729625,55.3640231 L91.8120279,55.3470262 L91.8120279,55.3470262 L91.957274,55.3331196 C92.0561649,55.3248787 92.138574,55.3042764 92.2045013,55.2713128 C92.2951513,55.2301082 92.3528377,55.1610906 92.3775605,55.0642599 C92.4022832,54.9674292 92.4146446,54.8427854 92.4146446,54.6903285 L92.4146446,54.6903285 L92.4146446,51.8039492 L92.4100406,51.6285566 C92.3916247,51.2907633 92.317961,51.0309223 92.1890496,50.8490336 C92.038653,50.6368301 91.8233591,50.5307284 91.5431681,50.5307284 C91.3659885,50.5307284 91.2083811,50.5585414 91.0703458,50.6141676 C90.9323106,50.6697938 90.8056066,50.7388114 90.6902338,50.8212205 C90.5707406,50.9077501 90.4780303,50.9942796 90.412103,51.0808092 L90.412103,51.0808092 L90.2452246,51.3033138 L90.2452246,54.622341 L90.2485081,54.7283784 C90.255075,54.8292008 90.2714925,54.9143783 90.2977604,54.983911 C90.3327842,55.0766213 90.3976814,55.1497593 90.4924519,55.2033253 C90.5583792,55.2404094 90.6335775,55.273373 90.7180469,55.3022162 C90.8025162,55.3310594 90.8921361,55.3516617 90.9869066,55.3640231 L90.9869066,55.3640231 L90.9869066,55.815213 L87.4577362,55.815213 L87.4577362,55.3640231 L87.5415188,55.3550954 C87.6010365,55.3486858 87.6678794,55.3413605 87.7420476,55.3331196 C87.8533,55.3207583 87.9357091,55.300156 87.989275,55.2713128 C88.0758046,55.2259878 88.1324608,55.1600605 88.1592438,55.0735309 C88.1860268,54.9870013 88.1994182,54.8592672 88.1994182,54.6903285 L88.1994182,54.6903285 L88.1994182,51.8039492 L88.1948143,51.6285566 C88.1763984,51.2907633 88.1027347,51.0309223 87.9738233,50.8490336 C87.8234267,50.6368301 87.6081328,50.5307284 87.3279418,50.5307284 C87.1507622,50.5307284 86.9931548,50.5585414 86.8551195,50.6141676 C86.7170843,50.6697938 86.5903802,50.7388114 86.4750075,50.8212205 C86.3555143,50.9077501 86.262804,50.9942796 86.1968767,51.0808092 L86.1968767,51.0808092 L86.0299983,51.3033138 L86.0299983,54.622341 L86.0361789,54.758316 C86.0444198,54.8434721 86.0609017,54.9176403 86.0856244,54.9808207 C86.1227085,55.0755911 86.1886358,55.1497593 86.2834063,55.2033253 C86.3493336,55.2404094 86.4245319,55.273373 86.5090012,55.3022162 C86.5934706,55.3310594 86.6830905,55.3516617 86.777861,55.3640231 L86.777861,55.3640231 L86.777861,55.815213 L83.0756314,55.815213 L83.0756314,55.3640231 L83.234784,55.3501165 L83.234784,55.3501165 L83.3908463,55.3331196 C83.4938577,55.3207583 83.5824475,55.300156 83.6566157,55.2713128 C83.7884703,55.2218673 83.8791203,55.1507895 83.9285658,55.0580792 C83.9780113,54.965369 84.002734,54.8427854 84.002734,54.6903285 L84.002734,54.6903285 L84.002734,51.0931706 L83.996167,50.9948591 C83.9830331,50.897127 83.9501982,50.8011333 83.8976624,50.7068779 C83.8276146,50.581204 83.7431453,50.4833431 83.6442543,50.4132954 C83.5700861,50.3638499 83.4763458,50.3226454 83.3630332,50.2896817 C83.2497207,50.2567181 83.1250769,50.2340556 82.9891019,50.2216942 L82.9891019,50.2216942 L82.9891019,49.7705043 L85.937288,49.6098065 L86.0299983,49.7025167 L86.0299983,50.5739932 L86.054721,50.5739932 L86.1773045,50.4644577 C86.2638341,50.3870847 86.3599781,50.301013 86.4657365,50.2062425 C86.624374,50.0640867 86.7737405,49.9497441 86.913836,49.8632145 C87.0662929,49.7643236 87.2620145,49.6819145 87.501001,49.6159872 C87.7399874,49.5500599 88.0016364,49.5170962 88.2859478,49.5170962 C88.7556798,49.5170962 89.1481532,49.6190775 89.4633681,49.8230401 C89.7785829,50.0270026 90.0021177,50.2979226 90.1339723,50.6358 L90.1339723,50.6358 L90.1895984,50.6358 L90.2842401,50.548691 C90.3839037,50.4579122 90.4986326,50.3561241 90.628427,50.2433266 C90.8014861,50.0929299 90.9601236,49.9724066 91.1043396,49.8817566 C91.2650374,49.7787452 91.4700301,49.6922156 91.7193176,49.6221679 C91.9686052,49.5521201 92.2354047,49.5170962 92.5197162,49.5170962 Z M75.4418003,46.2475145 L75.5345106,46.3464055 L75.5345106,54.6099796 L75.5395324,54.7189142 C75.549576,54.8224406 75.574685,54.9097428 75.6148595,54.9808207 C75.6684254,55.0755911 75.754955,55.1497593 75.8744482,55.2033253 C75.9568573,55.2404094 76.0433869,55.273373 76.1340369,55.3022162 C76.2246869,55.3310594 76.3318188,55.3516617 76.4554325,55.3640231 L76.4554325,55.3640231 L76.4554325,55.815213 L72.5801438,55.815213 L72.5801438,55.3640231 L72.7385238,55.3501165 L72.7385238,55.3501165 L72.8922683,55.3331196 C72.9932195,55.3207583 73.0828394,55.300156 73.161128,55.2713128 C73.2929826,55.2218673 73.3826025,55.1507895 73.4299878,55.0580792 C73.477373,54.965369 73.5010656,54.8427854 73.5010656,54.6903285 L73.5010656,54.6903285 L73.5010656,47.8421309 L73.4950781,47.7268226 C73.483103,47.6136388 73.4531653,47.5068289 73.405265,47.4063927 C73.341398,47.2724779 73.2558985,47.1704966 73.1487667,47.1004489 C73.0663576,47.046883 72.9417138,46.9953773 72.7748353,46.9459318 C72.6079568,46.8964863 72.4606505,46.8676431 72.3329164,46.8594022 L72.3329164,46.8594022 L72.3329164,46.4082123 L75.4418003,46.2475145 Z M69.6841501,49.6098065 L69.7768604,49.7025167 L69.7768604,54.6099796 L69.7826547,54.7140855 C69.7942435,54.8141353 69.8232155,54.9020169 69.8695706,54.9777303 C69.9313774,55.0786815 70.0199672,55.1538798 70.13534,55.2033253 C70.2177491,55.2404094 70.3083992,55.273373 70.4072901,55.3022162 C70.506181,55.3310594 70.6091924,55.3516617 70.7163243,55.3640231 L70.7163243,55.3640231 L70.7163243,55.815213 L66.8101322,55.815213 L66.8101322,55.3640231 L66.9692848,55.3501165 L66.9692848,55.3501165 L67.125347,55.3331196 C67.2283584,55.3207583 67.3169482,55.300156 67.3911164,55.2713128 C67.522971,55.2218673 67.6156813,55.1507895 67.6692472,55.0580792 C67.7228131,54.965369 67.7495961,54.8427854 67.7495961,54.6903285 L67.7495961,54.6903285 L67.7495961,51.0931706 L67.7434154,50.9882921 C67.731054,50.8866971 67.7001506,50.7949526 67.6507051,50.7130585 C67.5847779,50.6038665 67.5023687,50.5163068 67.4034778,50.4503795 C67.3293096,50.400934 67.2170272,50.3535488 67.0666305,50.3082238 C66.9162339,50.2628987 66.7792287,50.2340556 66.6556151,50.2216942 L66.6556151,50.2216942 L66.6556151,49.7705043 L69.6841501,49.6098065 Z M40.9089469,47.0448227 L40.9089469,49.2822303 L40.439215,49.2822303 L40.3571355,49.0814816 C40.2338515,48.8131576 40.0551885,48.5421964 39.8211466,48.2685981 C39.5285942,47.9266003 39.2381021,47.724698 38.9496702,47.6628911 C38.8260565,47.6340479 38.6540275,47.616536 38.4335831,47.6103553 C38.2131387,47.6041746 38.0308086,47.6010843 37.8865926,47.6010843 L37.8865926,47.6010843 L36.6133718,47.6010843 L36.6133718,50.988099 L37.5157516,50.988099 L37.6818575,50.9830772 C37.8441004,50.9730335 37.9947546,50.9479245 38.13382,50.9077501 C38.3192405,50.8541842 38.4881792,50.7511728 38.640636,50.5987159 C38.7354065,50.5039454 38.8312071,50.3370669 38.9280378,50.0980805 C39.0248685,49.8590941 39.0877055,49.6510111 39.1165487,49.4738315 L39.1165487,49.4738315 L39.5862806,49.4738315 L39.5862806,53.1327962 L39.1165487,53.1327962 L39.0971413,53.0236453 C39.0651666,52.8710237 39.0087987,52.6900532 38.9280378,52.4807341 C38.8270866,52.2190851 38.731286,52.0388152 38.640636,51.9399243 C38.504661,51.7915879 38.3439632,51.6896066 38.1585427,51.6339804 C37.9731222,51.5783543 37.7588585,51.5505412 37.5157516,51.5505412 L37.5157516,51.5505412 L36.6133718,51.5505412 L36.6133718,54.0784408 L36.6157204,54.2301148 C36.6219835,54.4236114 36.6407728,54.5821666 36.6720882,54.7057802 C36.7112326,54.8602973 36.7843707,54.9787604 36.8915025,55.0611695 C36.9945139,55.1394582 37.1356395,55.1909639 37.3148794,55.2156866 C37.4941192,55.2404094 37.7382562,55.2527707 38.0472904,55.2527707 C38.1915063,55.2527707 38.3645655,55.2507105 38.5664678,55.2465901 C38.7683701,55.2424696 38.9455497,55.2301082 39.0980066,55.209506 C39.2710658,55.1889037 39.4327936,55.1580003 39.5831903,55.1167957 C39.7335869,55.0755911 39.8458693,55.0158445 39.9200376,54.9375559 C40.1178194,54.7356535 40.340324,54.4276495 40.5875514,54.0135437 C40.8347787,53.5994378 40.9975367,53.2893735 41.0758254,53.0833508 L41.0758254,53.0833508 L41.5270153,53.0833508 L41.3601369,55.815213 L33.1336468,55.815213 L33.1336468,55.3331196 L33.2279022,55.3253938 C33.3298835,55.3161228 33.4550424,55.3022162 33.6033788,55.2836742 C33.8011607,55.2589514 33.9412561,55.2301082 34.0236653,55.1971446 C34.1802426,55.1312173 34.2853142,55.0477781 34.3388801,54.9468269 C34.3924461,54.8458757 34.419229,54.7171115 34.419229,54.5605342 L34.419229,54.5605342 L34.419229,48.3736697 L34.4149798,48.2672461 C34.4064814,48.1656511 34.3852353,48.0785421 34.3512415,48.0059191 C34.3059165,47.9090884 34.1967244,47.8215287 34.0236653,47.74324 C33.9165334,47.6937945 33.7661368,47.6484695 33.5724754,47.607265 C33.3788139,47.5660604 33.2325377,47.5392774 33.1336468,47.5269161 L33.1336468,47.5269161 L33.1336468,47.0448227 L40.9089469,47.0448227 Z M53.0450628,49.5170962 C53.6672516,49.5170962 54.1462546,49.7004565 54.4820718,50.0671771 C54.8178889,50.4338977 54.9857975,50.9551353 54.9857975,51.6308901 L54.9857975,51.6308901 L54.9857975,54.6347024 L54.9900467,54.7434438 C54.9985452,54.8465839 55.0197913,54.9329204 55.053785,55.0024531 C55.09911,55.0951633 55.1815191,55.1662412 55.3010124,55.2156866 C55.3669397,55.2445298 55.4483187,55.273373 55.5451494,55.3022162 C55.6419801,55.3310594 55.7542625,55.3516617 55.8819966,55.3640231 L55.8819966,55.3640231 L55.8819966,55.815213 L52.1983091,55.815213 L52.1983091,55.3640231 L52.3373745,55.3470262 L52.3373745,55.3470262 L52.4826206,55.3331196 C52.5815115,55.3248787 52.6639206,55.3042764 52.7298479,55.2713128 C52.820498,55.2301082 52.8781843,55.1610906 52.9029071,55.0642599 C52.9276298,54.9674292 52.9399912,54.8427854 52.9399912,54.6903285 L52.9399912,54.6903285 L52.9399912,51.8039492 L52.9353872,51.6285566 C52.9169713,51.2907633 52.8433076,51.0309223 52.7143962,50.8490336 C52.5639996,50.6368301 52.3487058,50.5307284 52.0685148,50.5307284 C51.8913352,50.5307284 51.7337277,50.5585414 51.5956925,50.6141676 C51.4576572,50.6697938 51.3309532,50.7388114 51.2155804,50.8212205 C51.0960872,50.9077501 51.0033769,50.9942796 50.9374496,51.0808092 L50.9374496,51.0808092 L50.7705712,51.3033138 L50.7705712,54.622341 L50.7738547,54.7283784 C50.7804217,54.8292008 50.7968391,54.9143783 50.823107,54.983911 C50.8581309,55.0766213 50.9230281,55.1497593 51.0177985,55.2033253 C51.0837258,55.2404094 51.1589241,55.273373 51.2433935,55.3022162 C51.3278628,55.3310594 51.4174828,55.3516617 51.5122532,55.3640231 L51.5122532,55.3640231 L51.5122532,55.815213 L47.9830828,55.815213 L47.9830828,55.3640231 L48.0668654,55.3550954 C48.1263831,55.3486858 48.1932261,55.3413605 48.2673943,55.3331196 C48.3786466,55.3207583 48.4610557,55.300156 48.5146216,55.2713128 C48.6011512,55.2259878 48.6578075,55.1600605 48.6845904,55.0735309 C48.7113734,54.9870013 48.7247649,54.8592672 48.7247649,54.6903285 L48.7247649,54.6903285 L48.7247649,51.8039492 L48.7201609,51.6285566 C48.701745,51.2907633 48.6280813,51.0309223 48.4991699,50.8490336 C48.3487733,50.6368301 48.1334795,50.5307284 47.8532885,50.5307284 C47.6761089,50.5307284 47.5185014,50.5585414 47.3804662,50.6141676 C47.2424309,50.6697938 47.1157269,50.7388114 47.0003541,50.8212205 C46.8808609,50.9077501 46.7881506,50.9942796 46.7222233,51.0808092 L46.7222233,51.0808092 L46.5553449,51.3033138 L46.5553449,54.622341 L46.5615256,54.758316 C46.5697665,54.8434721 46.5862483,54.9176403 46.610971,54.9808207 C46.6480551,55.0755911 46.7139824,55.1497593 46.8087529,55.2033253 C46.8746802,55.2404094 46.9498785,55.273373 47.0343479,55.3022162 C47.1188172,55.3310594 47.2084371,55.3516617 47.3032076,55.3640231 L47.3032076,55.3640231 L47.3032076,55.815213 L43.6009781,55.815213 L43.6009781,55.3640231 L43.7601307,55.3501165 L43.7601307,55.3501165 L43.9161929,55.3331196 C44.0192043,55.3207583 44.1077941,55.300156 44.1819623,55.2713128 C44.3138169,55.2218673 44.4044669,55.1507895 44.4539124,55.0580792 C44.5033579,54.965369 44.5280806,54.8427854 44.5280806,54.6903285 L44.5280806,54.6903285 L44.5280806,51.0931706 L44.5215136,50.9948591 C44.5083797,50.897127 44.4755448,50.8011333 44.423009,50.7068779 C44.3529612,50.581204 44.2684919,50.4833431 44.169601,50.4132954 C44.0954328,50.3638499 44.0016924,50.3226454 43.8883798,50.2896817 C43.7750673,50.2567181 43.6504235,50.2340556 43.5144485,50.2216942 L43.5144485,50.2216942 L43.5144485,49.7705043 L46.4626346,49.6098065 L46.5553449,49.7025167 L46.5553449,50.5739932 L46.5800676,50.5739932 L46.7026512,50.4644577 C46.7891807,50.3870847 46.8853247,50.301013 46.9910831,50.2062425 C47.1497206,50.0640867 47.2990872,49.9497441 47.4391827,49.8632145 C47.5916395,49.7643236 47.7873612,49.6819145 48.0263476,49.6159872 C48.265334,49.5500599 48.526983,49.5170962 48.8112944,49.5170962 C49.2810264,49.5170962 49.6734998,49.6190775 49.9887147,49.8230401 C50.3039296,50.0270026 50.5274643,50.2979226 50.6593189,50.6358 L50.6593189,50.6358 L50.714945,50.6358 L50.8095868,50.548691 C50.9092503,50.4579122 51.0239792,50.3561241 51.1537736,50.2433266 C51.3268327,50.0929299 51.4854703,49.9724066 51.6296862,49.8817566 C51.790384,49.7787452 51.9953767,49.6922156 52.2446643,49.6221679 C52.4939518,49.5521201 52.7607514,49.5170962 53.0450628,49.5170962 Z M114.595058,52.4652824 L114.364999,52.5473481 C114.212085,52.6045767 114.060086,52.6668413 113.909002,52.7341421 C113.682377,52.8350933 113.496957,52.941195 113.352741,53.0524473 C113.200284,53.1678201 113.080791,53.3151264 112.994261,53.4943662 C112.907731,53.673606 112.864467,53.8847794 112.864467,54.1278863 C112.864467,54.4492819 112.937605,54.6820876 113.083881,54.8263036 C113.230157,54.9705195 113.410427,55.0426275 113.624691,55.0426275 C113.851316,55.0426275 114.037767,54.9962724 114.184043,54.9035621 C114.330319,54.8108519 114.459083,54.6965092 114.570335,54.5605342 L114.570335,54.5605342 L114.595058,52.4652824 Z M61.8559708,52.4652824 L61.625912,52.5473481 C61.4729973,52.6045767 61.3209983,52.6668413 61.1699149,52.7341421 C60.9432898,52.8350933 60.7578693,52.941195 60.6136534,53.0524473 C60.4611965,53.1678201 60.3417033,53.3151264 60.2551737,53.4943662 C60.1686441,53.673606 60.1253794,53.8847794 60.1253794,54.1278863 C60.1253794,54.4492819 60.1985175,54.6820876 60.3447936,54.8263036 C60.4910698,54.9705195 60.6713398,55.0426275 60.8856035,55.0426275 C61.1122285,55.0426275 61.2986792,54.9962724 61.4449553,54.9035621 C61.5912315,54.8108519 61.7199958,54.6965092 61.8312481,54.5605342 L61.8312481,54.5605342 L61.8559708,52.4652824 Z M100.706375,50.0053703 C100.3891,50.0053703 100.135692,50.166068 99.946151,50.4874636 C99.7566101,50.8088591 99.6535987,51.3177354 99.6371168,52.0140925 L99.6371168,52.0140925 L101.621116,51.9893697 L101.616996,51.7400822 C101.611502,51.572517 101.600514,51.4022048 101.584032,51.2291456 C101.559309,50.9695569 101.516045,50.7573534 101.454238,50.5925352 C101.38419,50.3988738 101.28839,50.2525976 101.166836,50.1537067 C101.045283,50.0548157 100.891796,50.0053703 100.706375,50.0053703 Z M68.5963498,46.2475145 C68.9301067,46.2475145 69.2164784,46.3587668 69.4554648,46.5812715 C69.6944512,46.8037761 69.8139445,47.0716057 69.8139445,47.3847603 C69.8139445,47.697915 69.6934211,47.9647145 69.4523745,48.1851589 C69.2113278,48.4056033 68.9259862,48.5158255 68.5963498,48.5158255 C68.2625928,48.5158255 67.975191,48.4056033 67.7341444,48.1851589 C67.4930977,47.9647145 67.3725744,47.697915 67.3725744,47.3847603 C67.3725744,47.0716057 67.4930977,46.8037761 67.7341444,46.5812715 C67.975191,46.3587668 68.2625928,46.2475145 68.5963498,46.2475145 Z M133.42784,16.8044419 L133.594227,16.8434731 L154.554332,22.4597163 C155.939916,22.8309824 156.791185,24.2273991 156.511361,25.6153167 L156.472315,25.7817599 L152.260132,41.5018388 C151.888866,42.8874227 150.49245,43.7386916 149.104532,43.4588678 L148.938089,43.4198215 L127.977984,37.8035783 C126.5924,37.4323122 125.741131,36.0358955 126.020955,34.6479779 L126.060001,34.4815347 L130.285284,18.764966 C130.65655,17.3793821 132.040855,16.5248678 133.42784,16.8044419 Z M26.7951729,18.5977886 L26.8445794,18.7614558 L31.0567619,34.4815347 C31.4280279,35.8671186 30.6443301,37.3025475 29.3024463,37.7541718 L29.1387791,37.8035783 L8.17867392,43.4198215 C6.79309004,43.7910876 5.35766115,43.0073898 4.90603686,41.6655059 L4.85663036,41.5018388 L0.657547984,25.7782497 C0.286281903,24.3926659 1.05786798,22.9604823 2.39882015,22.5091076 L2.56243066,22.4597163 L23.5225359,16.8434731 C24.9081197,16.472207 26.3435486,17.2559048 26.7951729,18.5977886 Z M109.131743,18.9898933 C109.392144,18.9898933 109.637349,19.1124956 109.79359,19.3208168 L115.697167,27.1922535 C116.138399,27.780562 116.138399,28.5894863 115.697167,29.1777949 L109.79359,37.0492315 C109.519444,37.4147596 109.000885,37.4888394 108.635357,37.2146933 C108.427036,37.0584524 108.304434,36.8132477 108.304434,36.5528462 L108.303793,33.6095668 L105.176584,33.6098986 C104.376991,33.6098986 103.728793,32.9617006 103.728793,32.1621079 L103.728793,24.2079404 C103.728793,23.4083477 104.376991,22.7601498 105.176584,22.7601498 L108.303793,22.7595668 L108.304434,19.8172022 C108.304434,19.3602921 108.674833,18.9898933 109.131743,18.9898933 Z M49.2395398,19.1328794 C49.447861,19.2891203 49.5704634,19.534325 49.5704634,19.7947266 L49.5704634,22.7376742 L52.7777727,22.7376742 C53.5773654,22.7376742 54.2255633,23.3858721 54.2255633,24.1854648 L54.2255633,32.1396323 C54.2255633,32.939225 53.5773654,33.587423 52.7777727,33.587423 L49.5704634,33.587423 L49.5704634,36.5303706 C49.5704634,36.9872807 49.2000645,37.3576795 48.7431544,37.3576795 C48.4827529,37.3576795 48.2375482,37.2350771 48.0813073,37.0267559 L42.1777298,29.1553193 C41.7364984,28.5670107 41.7364984,27.7580864 42.1777298,27.1697778 L48.0813073,19.2983412 C48.3554533,18.9328131 48.8740117,18.8587333 49.2395398,19.1328794 Z M58.7915924,22.7601498 C59.5911851,22.7601498 60.239383,23.4083477 60.239383,24.2079404 L60.239383,32.1621079 C60.239383,32.9617006 59.5911851,33.6098986 58.7915924,33.6098986 L58.5226636,33.6098986 C57.7230709,33.6098986 57.074873,32.9617006 57.074873,32.1621079 L57.074873,24.2079404 C57.074873,23.4083477 57.7230709,22.7601498 58.5226636,22.7601498 L58.7915924,22.7601498 Z M64.6685397,22.7601498 C65.4681324,22.7601498 66.1163303,23.4083477 66.1163303,24.2079404 L66.1163303,32.1621079 C66.1163303,32.9617006 65.4681324,33.6098986 64.6685397,33.6098986 L64.3996109,33.6098986 C63.6000182,33.6098986 62.9518202,32.9617006 62.9518202,32.1621079 L62.9518202,24.2079404 C62.9518202,23.4083477 63.6000182,22.7601498 64.3996109,22.7601498 L64.6685397,22.7601498 Z M76.4224342,22.7601498 C77.2220269,22.7601498 77.8702249,23.4083477 77.8702249,24.2079404 L77.8702249,32.1621079 C77.8702249,32.9617006 77.2220269,33.6098986 76.4224342,33.6098986 L76.1535054,33.6098986 C75.3539127,33.6098986 74.7057148,32.9617006 74.7057148,32.1621079 L74.7057148,24.2079404 C74.7057148,23.4083477 75.3539127,22.7601498 76.1535054,22.7601498 L76.4224342,22.7601498 Z M82.2993815,22.7601498 C83.0989742,22.7601498 83.7471721,23.4083477 83.7471721,24.2079404 L83.7471721,32.1621079 C83.7471721,32.9617006 83.0989742,33.6098986 82.2993815,33.6098986 L82.0304527,33.6098986 C81.23086,33.6098986 80.5826621,32.9617006 80.5826621,32.1621079 L80.5826621,24.2079404 C80.5826621,23.4083477 81.23086,22.7601498 82.0304527,22.7601498 L82.2993815,22.7601498 Z M88.1763288,22.7601498 C88.9759215,22.7601498 89.6241194,23.4083477 89.6241194,24.2079404 L89.6241194,32.1621079 C89.6241194,32.9617006 88.9759215,33.6098986 88.1763288,33.6098986 L87.9074,33.6098986 C87.1078073,33.6098986 86.4596094,32.9617006 86.4596094,32.1621079 L86.4596094,24.2079404 C86.4596094,23.4083477 87.1078073,22.7601498 87.9074,22.7601498 L88.1763288,22.7601498 Z M94.0532761,22.7601498 C94.8528687,22.7601498 95.5010667,23.4083477 95.5010667,24.2079404 L95.5010667,32.1621079 C95.5010667,32.9617006 94.8528687,33.6098986 94.0532761,33.6098986 L93.7843473,33.6098986 C92.9847546,33.6098986 92.3365566,32.9617006 92.3365566,32.1621079 L92.3365566,24.2079404 C92.3365566,23.4083477 92.9847546,22.7601498 93.7843473,22.7601498 L94.0532761,22.7601498 Z M99.9302233,22.7601498 C100.729816,22.7601498 101.378014,23.4083477 101.378014,24.2079404 L101.378014,32.1621079 C101.378014,32.9617006 100.729816,33.6098986 99.9302233,33.6098986 L99.6612946,33.6098986 C98.8617019,33.6098986 98.2135039,32.9617006 98.2135039,32.1621079 L98.2135039,24.2079404 C98.2135039,23.4083477 98.8617019,22.7601498 99.6612946,22.7601498 L99.9302233,22.7601498 Z M70.5454869,22.7376742 C71.3450796,22.7376742 71.9932776,23.3858721 71.9932776,24.1854648 L71.9932776,32.1396323 C71.9932776,32.939225 71.3450796,33.587423 70.5454869,33.587423 L70.2765582,33.587423 C69.4769655,33.587423 68.8287675,32.939225 68.8287675,32.1396323 L68.8287675,24.1854648 C68.8287675,23.3858721 69.4769655,22.7376742 70.2765582,22.7376742 L70.5454869,22.7376742 Z M132.355143,21.4677963 C132.264659,21.8054869 132.334982,22.1640779 132.542297,22.4484376 L132.626415,22.5514071 L140.336674,30.8233136 C140.653946,31.1636102 141.137502,31.3163862 141.590497,31.2288972 L141.725281,31.1953898 L152.538515,27.8868382 C152.922179,27.7649909 153.213454,27.4639414 153.315249,27.0840395 C153.540203,26.2444962 152.803491,25.4941229 151.978005,25.6566206 L151.864971,25.684515 L141.617173,28.8216407 L134.310883,20.9809113 C133.687034,20.3223303 132.590324,20.5900919 132.355143,21.4677963 Z M22.8937559,20.8968169 L22.80588,20.9809113 L15.4995897,28.8216407 L5.25179193,25.684515 C4.38223286,25.4260914 3.56633414,26.2063351 3.80151433,27.0840395 C3.89199825,27.4217301 4.1321953,27.6971176 4.45391488,27.839723 L4.57824791,27.8868382 L15.3914816,31.1953898 C15.8363954,31.3314593 16.3315551,31.2219892 16.6801153,30.9197242 L16.7800886,30.8233136 L24.4903478,22.5514071 C24.761687,22.2540522 24.8634139,21.8476982 24.7616195,21.4677963 C24.5371293,20.6299875 23.5276494,20.3479325 22.8937559,20.8968169 Z M72.4784375,3.8429726 L72.5773284,5.95058575 L72.1384999,5.95058575 L72.0703862,5.77052604 C71.9215453,5.41759638 71.6970225,5.10780538 71.3968178,4.84115302 C71.0465791,4.53005861 70.6695574,4.3745114 70.2657527,4.3745114 C69.9484776,4.3745114 69.69919,4.44043869 69.51789,4.57229328 C69.3365899,4.70414786 69.2459399,4.88750815 69.2459399,5.12237413 C69.2459399,5.43552877 69.3788246,5.66215384 69.644594,5.80224934 C69.9103634,5.94234484 70.2822345,6.07419943 70.7602074,6.1978131 C71.497769,6.38735407 72.0375487,6.64591267 72.3795465,6.97348891 C72.7215444,7.30106515 72.8925433,7.7182613 72.8925433,8.22507737 C72.8925433,8.90083212 72.627804,9.42413001 72.0983254,9.79497104 C71.5688469,10.1658121 70.8776404,10.3512326 70.024706,10.3512326 C69.6250218,10.3512326 69.2346086,10.2925161 68.8534665,10.1750831 C68.4723243,10.0576501 68.1766816,9.93300631 67.9665384,9.80115172 L67.9665384,9.80115172 L67.7811178,10.2214382 L67.2990245,10.2214382 L67.2186756,7.91604318 L67.6698655,7.91604318 L67.7239465,8.05955093 C67.7857534,8.20750105 67.8707378,8.36877826 67.9788997,8.54338258 C68.1231157,8.77618833 68.2879339,8.98530147 68.4733544,9.17072198 C68.6670158,9.35614249 68.8884903,9.51271981 69.1377779,9.64045394 C69.3870655,9.76818807 69.653865,9.83205514 69.9381765,9.83205514 C70.313138,9.83205514 70.5922988,9.75891705 70.7756591,9.61264087 C70.9590194,9.46636468 71.0506995,9.24076973 71.0506995,8.935856 C71.0506995,8.77103776 71.009495,8.63506272 70.9270859,8.52793087 C70.8446768,8.42079902 70.7313642,8.32808876 70.5871483,8.2498001 C70.4264505,8.16739099 70.250301,8.09734324 70.0586998,8.03965685 C69.8670986,7.98197047 69.6312025,7.91192272 69.3510115,7.82951361 C69.0708205,7.74710449 68.830804,7.66366526 68.6309619,7.57919592 C68.4311198,7.49472657 68.2240668,7.36184187 68.0098031,7.18054182 C67.8243826,7.01984404 67.6760462,6.82618261 67.5647939,6.59955754 C67.4535416,6.37293247 67.3979155,6.10304262 67.3979155,5.78988797 C67.3979155,5.2089037 67.6420525,4.73917174 68.1303265,4.38069208 C68.6186005,4.02221243 69.2583013,3.8429726 70.0494288,3.8429726 C70.4243903,3.8429726 70.7694784,3.88108681 71.0846933,3.95731525 C71.3999082,4.03354368 71.6646475,4.11698291 71.8789112,4.20763294 L71.8789112,4.20763294 L72.0087055,3.8429726 L72.4784375,3.8429726 Z M52.1433013,3.83061123 C52.7201651,3.83061123 53.1940176,3.90065898 53.5648586,4.04075448 C53.9356996,4.18084998 54.2426736,4.3745114 54.4857805,4.62173875 C54.7206464,4.85660473 54.8916454,5.13370538 54.9987772,5.45304071 C55.1059091,5.77237604 55.159475,6.10716307 55.159475,6.45740182 L55.159475,6.45740182 L55.159475,6.85914626 L50.9813328,6.85914626 L50.9862155,7.10649722 C51.015512,7.8303789 51.1766424,8.39071969 51.4696068,8.78751959 C51.7951228,9.22840836 52.31224,9.44885275 53.0209584,9.44885275 C53.4082813,9.44885275 53.7564598,9.34275101 54.065494,9.13054753 C54.3745281,8.91834406 54.6382373,8.64948432 54.8566215,8.32396831 L54.8566215,8.32396831 L55.3263534,8.66390591 L55.2125902,8.8375445 C55.0932258,9.00867218 54.9570576,9.17226715 54.8040857,9.32832941 C54.6001231,9.53641243 54.3683475,9.71462215 54.1087587,9.86295856 C53.8326882,10.0195359 53.5535273,10.137999 53.2712761,10.2183479 C52.9890249,10.2986968 52.664539,10.3388712 52.2978184,10.3388712 C51.6879909,10.3388712 51.1616027,10.2523416 50.7186537,10.0792825 C50.2757047,9.90622334 49.9100143,9.67341759 49.6215824,9.38086523 C49.3331504,9.08831286 49.1178566,8.74322469 48.9757009,8.3456007 C48.8335452,7.94797671 48.7624673,7.51635896 48.7624673,7.05074746 C48.7624673,6.63046096 48.8397259,6.22768641 48.994243,5.84242379 C49.14876,5.45716117 49.3681743,5.11413322 49.6524858,4.81333994 C49.9326768,4.52078758 50.2860059,4.28386137 50.712473,4.10256131 C51.1389402,3.92126126 51.615883,3.83061123 52.1433013,3.83061123 Z M92.3030717,3.83061123 C92.7027559,3.83061123 93.0694765,3.85430385 93.4032334,3.90168909 C93.7369903,3.94907434 94.0377836,4.04693516 94.3056132,4.19527157 C94.5610815,4.33948752 94.7640139,4.54860066 94.9144106,4.82261097 C95.0648072,5.09662128 95.1400055,5.45407082 95.1400055,5.8949596 C95.1400055,6.36057111 95.1307345,6.91271219 95.1121925,7.55138284 C95.0936504,8.19005349 95.0843794,8.61033999 95.0843794,8.81224232 C95.0843794,8.99766283 95.1121925,9.14393902 95.1678186,9.25107087 C95.2234448,9.35820272 95.3089442,9.43855161 95.424317,9.49211753 C95.4943647,9.52508118 95.6045869,9.54465334 95.7549836,9.55083403 C95.9053802,9.55701471 96.0423854,9.56010505 96.165999,9.56010505 L96.165999,9.56010505 L96.165999,10.011295 L96.0238433,10.0688526 C95.8755069,10.1252513 95.7086284,10.1781734 95.5232079,10.2276189 C95.2759806,10.2935462 95.0143316,10.3265098 94.7382611,10.3265098 C94.231445,10.3265098 93.8585438,10.2513115 93.6195573,10.1009149 C93.3805709,9.95051824 93.2178129,9.73522443 93.1312833,9.45503343 L93.1312833,9.45503343 L93.0941992,9.45503343 L92.9558206,9.5882615 C92.8647127,9.67250193 92.775894,9.74758579 92.6893644,9.81351309 C92.5595701,9.91240403 92.4205047,9.99687337 92.2721683,10.0669211 C92.0785069,10.1575711 91.8920562,10.2245286 91.7128164,10.2677933 C91.5335766,10.3110581 91.2832589,10.3326905 90.9618633,10.3326905 C90.4838905,10.3326905 90.0759653,10.1915649 89.7380879,9.90931368 C89.4002106,9.62706246 89.2312719,9.25313109 89.2312719,8.78751959 C89.2312719,8.51968996 89.268356,8.29203477 89.3425242,8.10455403 C89.4166924,7.91707329 89.521764,7.75122495 89.6577391,7.60700899 C89.7813527,7.47515441 89.9245386,7.36596233 90.0872966,7.27943276 C90.2500546,7.19290318 90.4282643,7.11255429 90.6219257,7.03838609 C90.9927667,6.90241105 91.437776,6.76128544 91.9569534,6.61500925 C92.4761308,6.46873307 92.8552128,6.3379086 93.0941992,6.22253584 L93.0941992,6.22253584 L93.0941992,5.6291902 L93.092654,5.54575097 C93.0895637,5.45613105 93.0818378,5.34796909 93.0694765,5.22126507 C93.0529947,5.05232638 93.0179708,4.91017066 92.9644049,4.79479789 C92.9067185,4.66294331 92.8160684,4.551691 92.6924548,4.46104097 C92.5688411,4.37039094 92.4060831,4.32506593 92.2041808,4.32506593 C92.0228807,4.32506593 91.8714539,4.35081878 91.7499005,4.40232448 C91.6283471,4.45383017 91.5304862,4.50636599 91.456318,4.55993191 C91.4686794,4.64234103 91.5037033,4.76801493 91.5613896,4.93695362 C91.619076,5.10589231 91.6479192,5.26865031 91.6479192,5.42522763 C91.6479192,5.49527538 91.6293772,5.58283507 91.5922931,5.68790669 C91.555209,5.79297832 91.501643,5.87641755 91.4315953,5.93822438 C91.3368248,6.0206335 91.2307231,6.08450057 91.1132901,6.12982558 C90.9958571,6.17515059 90.8155871,6.1978131 90.5724803,6.1978131 C90.226362,6.1978131 89.964713,6.11437387 89.7875334,5.94749541 C89.6103538,5.78061695 89.521764,5.5632629 89.521764,5.29543328 C89.521764,5.06468775 89.6134442,4.85763484 89.7968044,4.67427456 C89.9801647,4.49091428 90.2036995,4.33948752 90.4674086,4.21999431 C90.7269973,4.09638063 91.0257304,4.00058003 91.3636078,3.93259251 C91.7014851,3.86460499 92.0146398,3.83061123 92.3030717,3.83061123 Z M115.243709,8.0211148 C115.560984,8.0211148 115.838085,8.13545745 116.075011,8.36414275 C116.311938,8.59282805 116.430401,8.86374802 116.430401,9.17690266 C116.430401,9.4900573 116.311938,9.75891705 116.075011,9.98348189 C115.838085,10.2080467 115.560984,10.3203292 115.243709,10.3203292 C114.922314,10.3203292 114.643153,10.2080467 114.406227,9.98348189 C114.169301,9.75891705 114.050837,9.4900573 114.050837,9.17690266 C114.050837,8.86374802 114.169301,8.59282805 114.406227,8.36414275 C114.643153,8.13545745 114.922314,8.0211148 115.243709,8.0211148 Z M60.1136363,2.16182662 L60.1136363,4.03457379 L61.8442278,4.03457379 L61.8442278,4.70208764 L60.1259977,4.70208764 L60.1259977,8.08910232 L60.1291363,8.26332035 C60.1437833,8.65450612 60.2096945,8.93843128 60.3268699,9.11509582 C60.4607847,9.31699816 60.7008013,9.41794933 61.0469196,9.41794933 C61.1581719,9.41794933 61.312689,9.40970842 61.5104709,9.39322659 C61.7082527,9.37674477 61.846288,9.35820272 61.9245767,9.33760044 L61.9245767,9.33760044 L61.9245767,9.85677787 L61.6546868,9.96837355 C61.4706398,10.0402526 61.2783518,10.1070956 61.077823,10.1689024 C60.7770297,10.2616127 60.4103092,10.3079678 59.9776613,10.3079678 C59.3348702,10.3079678 58.8579274,10.1513905 58.546833,9.83823582 C58.2357386,9.52508118 58.0801914,9.07801172 58.0801914,8.49702745 L58.0801914,8.49702745 L58.0801914,4.70208764 L56.9676683,4.70208764 L56.9676683,4.03457379 L58.1049141,4.03457379 L58.1049141,2.16182662 L60.1136363,2.16182662 Z M85.4514404,2.16182662 L85.4514404,4.03457379 L87.1820319,4.03457379 L87.1820319,4.70208764 L85.4638018,4.70208764 L85.4638018,8.08910232 L85.4669404,8.26332035 C85.4815874,8.65450612 85.5474986,8.93843128 85.664674,9.11509582 C85.7985888,9.31699816 86.0386054,9.41794933 86.3847237,9.41794933 C86.495976,9.41794933 86.6504931,9.40970842 86.848275,9.39322659 C87.0460568,9.37674477 87.1840921,9.35820272 87.2623808,9.33760044 L87.2623808,9.33760044 L87.2623808,9.85677787 L86.9924909,9.96837355 C86.8084439,10.0402526 86.616156,10.1070956 86.4156271,10.1689024 C86.1148338,10.2616127 85.7481133,10.3079678 85.3154654,10.3079678 C84.6726743,10.3079678 84.1957315,10.1513905 83.8846371,9.83823582 C83.5735427,9.52508118 83.4179955,9.07801172 83.4179955,8.49702745 L83.4179955,8.49702745 L83.4179955,4.70208764 L82.3054724,4.70208764 L82.3054724,4.03457379 L83.4427182,4.03457379 L83.4427182,2.16182662 L85.4514404,2.16182662 Z M43.4807297,1.3706991 L43.4807297,1.85279243 L43.3409776,1.86687066 C43.2425445,1.87740071 43.1335813,1.89021991 43.0140881,1.90532825 C42.8348483,1.92799075 42.6793011,1.95992429 42.5474465,2.00112884 C42.3867487,2.05469477 42.2796168,2.138134 42.2260509,2.25144654 C42.172485,2.36475907 42.145702,2.49352332 42.145702,2.63773927 L42.145702,2.63773927 L42.145702,8.4043172 L42.1479271,8.56056488 C42.1538605,8.75966531 42.1716609,8.92184645 42.2013282,9.0471083 C42.2384123,9.20368562 42.3105203,9.31905839 42.4176521,9.39322659 C42.524784,9.47151525 42.6741505,9.52199084 42.8657517,9.54465334 C43.0573529,9.56731585 43.3220922,9.5786471 43.6599696,9.5786471 C43.989606,9.5786471 44.3099715,9.55907494 44.6210659,9.51993061 C44.9321603,9.48078628 45.155695,9.39528682 45.2916701,9.26343223 C45.5018133,9.05328899 45.7171071,8.75764628 45.9375515,8.37650412 C46.1579959,7.99536195 46.3341454,7.64615332 46.466,7.32887822 L46.466,7.32887822 L46.9171899,7.32887822 L46.7441307,10.1410893 L38.6659771,10.1410893 L38.6659771,9.65899599 L38.818434,9.64423103 C38.9255658,9.63278532 39.0436855,9.61813481 39.1727932,9.6002795 C39.3664546,9.57349654 39.4941887,9.54774369 39.5559955,9.52302095 C39.704332,9.46533457 39.8073434,9.38498568 39.8650297,9.28197429 C39.9227161,9.17896289 39.9515593,9.0471083 39.9515593,8.88641053 L39.9515593,8.88641053 L39.9515593,2.69954611 L39.9473101,2.59312246 C39.9388116,2.49152747 39.9175655,2.40441846 39.8835718,2.33179542 C39.8382468,2.23496471 39.7290547,2.14740503 39.5559955,2.06911637 C39.4282614,2.01142998 39.2747744,1.96507486 39.0955346,1.93005098 C38.9162948,1.89502711 38.7731089,1.86927426 38.6659771,1.85279243 L38.6659771,1.85279243 L38.6659771,1.3706991 L43.4807297,1.3706991 Z M100.798765,0.573390901 L100.891475,0.672281841 L100.891475,8.935856 L100.896497,9.04479055 C100.906541,9.148317 100.93165,9.23561916 100.971824,9.30669702 C101.02539,9.4014675 101.111919,9.47563571 101.231413,9.52920164 C101.313822,9.56628574 101.400351,9.59924938 101.491001,9.62809257 C101.581651,9.65693577 101.688783,9.67753804 101.812397,9.68989941 L101.812397,9.68989941 L101.812397,10.1410893 L97.9371083,10.1410893 L97.9371083,9.68989941 L98.0954883,9.67599287 L98.0954883,9.67599287 L98.2492328,9.65899599 C98.350184,9.64663463 98.4398039,9.62603235 98.5180925,9.59718916 C98.6499471,9.54774369 98.739567,9.47666582 98.7869523,9.38395557 C98.8343375,9.29124531 98.8580301,9.16866175 98.8580301,9.01620488 L98.8580301,9.01620488 L98.8580301,2.16800731 L98.8520426,2.05269892 C98.8400675,1.93951515 98.8101298,1.83270521 98.7622295,1.7322691 C98.6983625,1.59835429 98.612863,1.49637301 98.5057312,1.42632526 C98.423322,1.37275933 98.2986783,1.32125363 98.1317998,1.27180816 C97.9649213,1.22236269 97.817615,1.1935195 97.6898809,1.18527859 L97.6898809,1.18527859 L97.6898809,0.734088678 L100.798765,0.573390901 Z M106.544054,0.573390901 L106.636764,0.672281841 L106.636764,7.05074746 L106.824286,6.88238563 C107.080413,6.65098083 107.360934,6.39188657 107.665848,6.10510285 C108.04699,5.74662319 108.352934,5.44995037 108.583679,5.21508439 C108.719654,5.07498889 108.794853,4.96888715 108.809274,4.89677917 C108.823696,4.8246712 108.830907,4.7803763 108.830907,4.76389447 C108.830907,4.68972627 108.76601,4.62791943 108.636215,4.57847396 C108.506421,4.52902849 108.311729,4.48576371 108.052141,4.4486796 L108.052141,4.4486796 L108.052141,4.00985106 L111.191928,4.00985106 L111.191928,4.43631824 L110.99406,4.49340372 C110.677872,4.58754469 110.429644,4.67667816 110.249374,4.76080413 C110.03305,4.8617553 109.797154,4.99670023 109.541685,5.16563892 C109.372747,5.27689122 109.208959,5.3932941 109.050321,5.51484755 C108.891683,5.636401 108.709353,5.78782775 108.50333,5.9691278 C108.907135,6.55423253 109.280036,7.09607247 109.622034,7.59464763 C109.964032,8.09322278 110.322512,8.62064113 110.697473,9.17690266 C110.825207,9.37056409 110.983845,9.50035844 111.173386,9.56628574 C111.362927,9.63221303 111.552468,9.67341759 111.742009,9.68989941 L111.742009,9.68989941 L111.742009,10.1410893 L108.830907,10.1410893 L108.654242,9.83385784 C108.364093,9.335111 108.095405,8.90289235 107.848178,8.5372019 C107.551505,8.09837335 107.271314,7.69147834 107.007605,7.31651686 L107.007605,7.31651686 L106.636764,7.63173173 L106.636764,8.97912078 L106.64082,9.08535128 C106.648932,9.18655998 106.669213,9.27270326 106.701661,9.34378112 C106.744926,9.43855161 106.828365,9.50859936 106.951979,9.55392437 C107.026147,9.58688802 107.112677,9.61573121 107.211568,9.64045394 C107.310458,9.66517668 107.409349,9.6816585 107.50824,9.68989941 L107.50824,9.68989941 L107.50824,10.1410893 L103.682397,10.1410893 L103.682397,9.68989941 L103.836914,9.67522029 L103.836914,9.67522029 L103.991431,9.65590565 C104.094443,9.64148406 104.185093,9.62191189 104.263381,9.59718916 C104.395236,9.55186414 104.484856,9.48181639 104.532241,9.38704591 C104.579626,9.29227543 104.603319,9.16866175 104.603319,9.01620488 L104.603319,9.01620488 L104.603319,2.12474252 L104.593361,1.98705062 C104.580084,1.89411145 104.55353,1.79888314 104.513699,1.70136568 C104.453952,1.5550895 104.366393,1.44486731 104.25102,1.3706991 C104.172731,1.32125363 104.055298,1.28004908 103.898721,1.24708543 C103.742144,1.21412178 103.599988,1.1935195 103.472254,1.18527859 L103.472254,1.18527859 L103.472254,0.734088678 L106.544054,0.573390901 Z M93.0941992,6.79115874 L92.8641404,6.87322449 C92.7112257,6.93045304 92.5592267,6.9927177 92.4081433,7.06001848 C92.1815183,7.16096965 91.9960977,7.26707139 91.8518818,7.37832369 C91.6994249,7.49369646 91.5799317,7.64100275 91.4934021,7.82024258 C91.4068726,7.99948241 91.3636078,8.21065577 91.3636078,8.45376266 C91.3636078,8.77515822 91.4367459,9.00796397 91.583022,9.15217993 C91.7292982,9.29639588 91.9095682,9.36850386 92.1238319,9.36850386 C92.3504569,9.36850386 92.5369076,9.32214873 92.6831837,9.22943847 C92.8294599,9.13672822 92.9582242,9.02238557 93.0694765,8.88641053 L93.0694765,8.88641053 L93.0941992,6.79115874 Z M115.237529,1.19763996 C115.563045,1.19763996 115.845296,1.30992238 116.084282,1.53448722 C116.323269,1.75905206 116.442762,2.02997204 116.442762,2.34724713 C116.442762,2.51618582 116.412889,2.73972055 116.353142,3.01785132 C116.293396,3.29598209 116.218197,3.62252821 116.127547,3.99748969 C116.041018,4.35184889 115.942127,4.79376778 115.830874,5.32324635 C115.719622,5.85272493 115.602189,6.50684729 115.478575,7.28561344 L115.478575,7.28561344 L115.002663,7.28561344 L114.950064,6.95639743 C114.845623,6.31411086 114.745723,5.76869706 114.650364,5.32015601 C114.539111,4.79685812 114.440221,4.35802958 114.353691,4.00367037 C114.275402,3.67815436 114.203294,3.35984915 114.137367,3.04875474 C114.07144,2.73766032 114.038476,2.50382445 114.038476,2.34724713 C114.038476,2.02997204 114.155909,1.75905206 114.390775,1.53448722 C114.625641,1.30992238 114.907892,1.19763996 115.237529,1.19763996 Z M52.0505911,4.33124661 C51.733316,4.33124661 51.4799079,4.49194439 51.290367,4.81333994 C51.100826,5.1347355 50.9978146,5.64361179 50.9813328,6.33996883 L50.9813328,6.33996883 L52.9653323,6.31524609 L52.9612118,6.06595851 C52.9557179,5.89839331 52.94473,5.72808114 52.9282482,5.55502199 C52.9035254,5.29543328 52.8602606,5.0832298 52.7984538,4.91841157 C52.728406,4.72475014 52.6326054,4.57847396 52.511052,4.47958302 C52.3894986,4.38069208 52.2360116,4.33124661 52.0505911,4.33124661 Z M65.0121715,0.684643208 C65.4654217,0.684643208 65.8136002,0.835039846 66.0567071,1.13583312 C66.299814,1.4366264 66.4213674,1.85279243 66.4213674,2.38433124 C66.4213674,2.87878593 66.2122543,3.37736109 65.794028,3.8800567 C65.3758018,4.38275231 64.872076,4.76389447 64.2828509,5.02348319 L64.2828509,5.02348319 L64.0109008,4.58465465 L64.2352939,4.46825177 C64.5952615,4.2690964 64.8851241,4.04418819 65.1048818,3.79352713 C65.368591,3.49273385 65.5210478,3.12807351 65.5622524,2.69954611 L65.5622524,2.69954611 L65.2161341,2.69954611 L65.0685394,2.69608492 C64.879328,2.6868551 64.7204433,2.65916564 64.591885,2.61301653 C64.4311873,2.55533015 64.3013929,2.47498126 64.202502,2.37196987 C64.1077315,2.27719938 64.0407741,2.16903742 64.0016297,2.04748397 C63.9624854,1.92593053 63.9429132,1.80128674 63.9429132,1.67355261 C63.9429132,1.40984343 64.049015,1.17909791 64.2612185,0.981316028 C64.4734219,0.783534148 64.7237396,0.684643208 65.0121715,0.684643208 Z" id="Combined-Shape" fill="#009976"></path>
    </g>
</svg>