<?xml version="1.0" encoding="UTF-8"?>
<svg width="280px" height="48px" viewBox="0 0 280 48" version="1.1" xmlns="http://www.w3.org/2000/svg" xmlns:xlink="http://www.w3.org/1999/xlink">
    <!-- Generator: Sketch 61.2 (89653) - https://sketch.com -->
    <title>Logo</title>
    <desc>Created with Sketch.</desc>
    <defs>
        <radialGradient cx="-3.53563705%" cy="-22.5987807%" fx="-3.53563705%" fy="-22.5987807%" r="801.017669%" gradientTransform="translate(-0.035356,-0.225988),scale(0.137430,1.000000),rotate(10.379045),translate(0.035356,0.225988)" id="radialGradient-1">
            <stop stop-color="#C9FF00" offset="0%"></stop>
            <stop stop-color="#FF0000" offset="100%"></stop>
        </radialGradient>
    </defs>
    <g id="Logo" stroke="none" stroke-width="1" fill="none" fill-rule="evenodd">
        <rect fill="#FFFFFF" x="0" y="0" width="280" height="48"></rect>
        <g id="Group" transform="translate(16.000000, 0.200000)" fill-rule="nonzero">
            <path d="M18.7550175,-2.62900812e-14 L19.0451927,10.9734954 L17.5586212,10.9734954 L17.4084797,10.1860018 C16.9386451,7.90421677 16.0693744,6.06029167 14.8030229,4.64788656 C13.4637416,3.15414038 11.919542,2.41601242 10.1510107,2.41601242 C9.38090874,2.41601242 8.66261219,2.60380781 7.99046835,2.9808929 C7.32074561,3.3566197 6.80049976,3.86857694 6.42460316,4.52119201 C6.0481191,5.174827 5.86006921,5.8972595 5.86006921,6.69473014 C5.86006921,7.84718888 6.30314135,8.8483802 7.20610929,9.7208877 C7.60397403,10.1177045 8.27516467,10.60712 9.2137581,11.1817039 L9.43510068,11.3158087 L10.6901651,12.0589353 L11.4052764,12.4727898 C11.7559701,12.6738624 12.0963699,12.8661525 12.426471,13.0496587 C13.353525,13.5650164 14.2540868,14.1031723 15.1281452,14.6641285 C16.0171118,15.2346524 16.7582933,15.8229396 17.3492342,16.4278548 C19.3321822,18.4211525 20.3262233,20.9036131 20.3262233,23.8548544 C20.3262233,25.6871005 19.9279403,27.3578199 19.1309118,28.8619506 C18.3316118,30.3703681 17.2194129,31.5541115 15.7984772,32.4075593 C14.3775766,33.260986 12.8021881,33.6880809 11.0791989,33.6880809 C10.2058809,33.6880809 9.42404773,33.6015477 8.72970457,33.4260777 L8.47341918,33.3561029 L7.81259141,33.1499846 C7.49918158,33.0473079 7.16130678,32.930435 6.79850917,32.7992055 L6.23556341,32.591574 L5.42844256,32.2857969 C4.61907273,31.987072 4.08244128,31.8365938 3.85744128,31.8365938 C3.28534555,31.8365938 2.88192089,32.2044955 2.62795759,33.0182189 L2.58468813,33.1664609 L2.45665532,33.6880809 L1.03981876,33.6880809 L1.03981876,21.2921015 L2.52713809,21.2921015 L2.67265108,22.2262724 C2.96016797,23.8856934 3.45082924,25.3668694 4.14387388,26.6710566 C4.91904228,28.1297862 5.87947225,29.2618502 7.0251671,30.0718492 C8.15932271,30.8736901 9.37187938,31.2720685 10.6717016,31.2720685 C11.9308932,31.2720685 12.9642396,30.8136301 13.7956648,29.8868377 C14.6339933,28.9523501 15.053198,27.7753443 15.053198,26.3385566 C15.053198,25.5091132 14.9436786,24.8431563 14.7302721,24.3419423 C14.5156447,23.8378605 14.1302559,23.3053794 13.5713255,22.7479212 C13.12326,22.3010358 12.398256,21.759404 11.4023069,21.1299734 L11.1847443,20.993754 L7.8597526,18.9752408 L6.91189804,18.3956 C5.63775549,17.6147553 4.65849487,16.8841668 3.9725003,16.1999791 C2.91489713,15.1451615 2.15257672,14.0534307 1.68863737,12.9240866 C1.22543984,11.7965482 0.994541278,10.5397091 0.994541278,9.15585322 C0.994541278,6.48268202 1.7754897,4.28299853 3.33891033,2.57481762 C4.90789045,0.860562453 6.92249159,-2.62900812e-14 9.3586548,-2.62900812e-14 C10.3611824,-2.62900812e-14 11.2180186,0.12208277 11.9298137,0.369358364 C12.429773,0.543042831 12.9928734,0.770892195 13.6211355,1.0536373 L13.8943861,1.17817687 L14.3429875,1.38897699 C15.207801,1.80242383 15.7914084,2.00954086 16.0370827,2.00954086 C16.3703935,2.00954086 16.6073046,1.90189897 16.7801912,1.68097141 C16.9283596,1.49163075 17.0542747,1.18034593 17.1481497,0.754543916 L17.1818318,0.589514675 L17.2799616,-2.62900812e-14 L18.7550175,-2.62900812e-14 Z M209.247559,-1.56319402e-14 L217.450301,27.36225 L217.691959,28.1263436 L217.844696,28.5782817 C218.170686,29.5153244 218.464209,30.1779462 218.718429,30.5582731 C219.002736,30.9836091 219.36305,31.2562004 219.798217,31.3840076 L219.931012,31.4180142 L220.112711,31.4489 L220.232683,31.4469317 C221.071238,31.4124814 221.653061,31.2255564 221.990637,30.9060096 L222.05924,30.8355126 C222.365972,30.4926673 222.553672,29.9503907 222.60904,29.2080675 L222.620118,29.0183187 L222.626608,28.7093632 L222.626681,5.07619942 L222.620353,4.7631467 C222.584043,3.90150061 222.390846,3.2853818 222.057479,2.90703221 C221.756143,2.5650352 221.214816,2.35531851 220.426315,2.29730889 L220.239962,2.28662393 L219.593017,2.27352057 L219.593017,0.745110657 L232.37597,0.7451369 L232.936767,0.752032426 C235.178248,0.807717131 237.0452,1.19955108 238.536643,1.9325296 C240.162497,2.73156484 241.33867,3.81379556 242.054058,5.17737967 C242.760232,6.52340346 243.112865,8.03182376 243.112865,9.69775188 C243.112865,11.8010281 242.589633,13.574548 241.539716,15.0074917 C240.622936,16.2587285 239.389805,17.1629479 237.842361,17.7187906 L237.551811,17.8171 L242.577954,28.1917556 L242.747684,28.5318111 L243.071092,29.1545443 C243.326685,29.632086 243.55518,30.021283 243.755647,30.3211925 C244.057613,30.7729473 244.356739,31.0712863 244.644972,31.2212726 C244.839334,31.3224115 245.069659,31.3911421 245.329338,31.4255697 L245.488616,31.4420948 L246.123818,31.4652022 L246.123818,32.9881285 L237.496122,32.9881285 L230.296311,18.2889 L229.710411,18.2889 L229.710691,28.6588525 L229.715333,28.9653942 C229.736293,29.6296814 229.828767,30.1375206 229.985386,30.4846448 C230.150704,30.8510521 230.407691,31.0926319 230.771349,31.225622 C231.076493,31.3372133 231.478104,31.4089537 231.970302,31.4378986 L232.186772,31.4476748 L232.857517,31.458098 L232.857517,32.9881285 L208.637094,32.9881285 L208.637094,31.4578347 L209.286731,31.4482805 C209.929842,31.4284978 210.376119,31.3419194 210.612123,31.2059205 C210.839489,31.0748995 210.946246,30.8761451 210.946246,30.5608503 C210.946246,30.1849749 210.863724,29.6445655 210.697833,28.948609 L210.645563,28.7351646 L210.553149,28.3797228 L209.615273,25.2120255 L209.633711,25.2126 L206.120411,13.4904 L202.352137,25.4824733 L202.346011,25.4821 L201.399402,28.6801135 C201.186807,29.3992386 201.06536,29.9071566 201.035804,30.1778679 L201.03033,30.2405888 L201.028677,30.289901 C201.028677,30.9876862 201.504134,31.3650454 202.598067,31.4392877 L202.751087,31.4475344 L203.360467,31.4595147 L203.360467,32.9881285 L184.1624,32.9881285 L184.1624,31.4588304 L184.827067,31.4471491 C185.799577,31.411691 186.435531,31.2075804 186.743233,30.8678082 C187.039677,30.5404664 187.223407,29.9433501 187.272827,29.0804 L187.281353,28.8914146 L187.286546,28.5738885 L187.286211,6.5338 L178.51681,32.9881285 L177.308682,32.9881285 L168.743211,6.8495 L168.743558,28.6125927 L168.74959,28.9433032 C168.784209,29.8535713 168.968546,30.4886952 169.281332,30.8517055 C169.560828,31.1760802 170.06076,31.3765288 170.788763,31.4346819 L170.960816,31.4455676 L171.618737,31.4606145 L171.618737,32.9881285 L163.583786,32.9881285 L163.583786,31.4659254 L164.20176,31.4422258 C164.962652,31.393994 165.486793,31.1931114 165.790875,30.8567456 C166.072043,30.545726 166.247296,30.0479195 166.303202,29.3635684 L166.315479,29.1723023 L166.323073,28.8448379 L166.323148,5.07624631 L166.316262,4.73810293 C166.281033,3.90929199 166.109913,3.30492211 165.817559,2.92186089 C165.561435,2.58627037 165.090333,2.37505689 164.39152,2.30559819 L164.226208,2.29209353 L163.954511,2.2806 L163.696416,2.29164307 C162.964822,2.33957333 162.461028,2.53043495 162.166114,2.84875069 L162.101756,2.92446362 C161.827292,3.27716797 161.657422,3.82871345 161.604821,4.57535462 L161.594121,4.76607724 L161.586928,5.11419238 L161.586902,24.2203322 L161.582202,24.608673 C161.435575,30.6347088 157.869391,33.6880809 151.026856,33.6880809 C148.247596,33.6880809 145.792171,33.0391457 143.667779,31.7400294 C141.643423,30.5020876 140.560761,28.3746528 140.415627,25.3937099 L140.404767,25.1117471 L140.398869,24.6902815 L140.398945,5.07630714 L140.392203,4.74783931 C140.357732,3.94334164 140.190366,3.35443024 139.904187,2.97766916 C139.651814,2.64541372 139.198632,2.42325244 138.535058,2.32570906 L138.364776,2.30392783 L138.083211,2.2806 L137.731858,2.3319032 C136.840343,2.48976269 136.005325,2.84386939 135.223998,3.39656892 L135.012238,3.5522307 C134.18297,4.18507523 133.240343,5.17675298 132.190373,6.52425418 L131.97895,6.79849784 L131.663829,7.21763689 L127.986411,12.2381 L136.964182,30.1234729 L137.078544,30.3355881 C137.457725,30.9770625 138.009539,31.3368088 138.753065,31.4284173 L138.915334,31.4439484 L139.519183,31.4642971 L139.519183,32.9881285 L127.228149,32.9881285 L127.228149,31.4587575 L127.823223,31.4484307 C128.906288,31.4093592 129.35619,31.1334462 129.35619,30.6511667 C129.35619,30.2277488 129.132981,29.5354937 128.682597,28.6000137 L128.58949,28.4096823 L123.498011,18.3659 L122.970211,19.1114 L122.970178,28.6564306 L122.977584,28.9941254 C123.015439,29.8206093 123.199095,30.4254132 123.514675,30.8145565 C123.795663,31.1610447 124.282188,31.3723833 124.985396,31.4336628 L125.151527,31.4451336 L125.800107,31.4613352 L125.800107,32.9881285 L113.124214,32.9881285 L113.124214,31.4613721 L113.772747,31.4452268 C114.5097,31.4070008 115.024359,31.2241365 115.330273,30.9135801 C115.616039,30.623477 115.793909,30.1248867 115.846665,29.4162077 L115.857238,29.2346602 L115.863502,28.9351543 L115.863587,4.85095719 L115.856875,4.54217619 C115.822643,3.78834023 115.656755,3.23242295 115.372001,2.86889755 C115.121945,2.54966931 114.642172,2.35171175 113.921161,2.29660329 L113.750487,2.28643156 L113.124214,2.27324691 L113.124214,0.745110657 L126.117049,0.745110657 L126.117049,2.27318936 L125.452495,2.28720308 C124.56997,2.32579741 123.951935,2.53046635 123.587901,2.88219501 C123.252188,3.20656101 123.04928,3.7051672 122.98939,4.3839639 L122.977403,4.55742048 L122.970265,4.84324305 L122.970211,15.8641 L129.452272,6.75943359 L129.704387,6.39684639 C130.020819,5.93328852 130.258299,5.54951388 130.415992,5.24811848 L130.471386,5.1389618 L130.51929,5.03755859 C130.710517,4.61524302 130.805069,4.19761375 130.805069,3.78202485 C130.805069,3.26691341 130.62612,2.91845587 130.258076,2.69121944 C129.924796,2.4854465 129.404649,2.35224684 128.705634,2.30214415 L128.510565,2.29054795 L127.839395,2.26997262 L127.839395,0.745110657 L150.113271,0.745110657 L150.19535,2.25957565 L149.550239,2.29719502 C148.837476,2.35933076 148.334151,2.56486861 148.024395,2.9013924 C147.73273,3.21826211 147.553022,3.73434641 147.499894,4.45040909 L147.489258,4.63359141 L147.482993,4.9335595 L147.482963,24.5953854 L147.488706,25.0366586 C147.5449,27.1434832 148.01455,28.6201136 148.874311,29.4776097 C149.799293,30.4001549 151.128734,30.8656445 152.883233,30.8656445 C154.984517,30.8656445 156.593079,30.2952177 157.729788,29.1615021 C158.190787,28.7017183 158.548129,27.9609624 158.790939,26.9353013 C158.978354,26.143632 159.095776,25.2795269 159.142747,24.3463248 L159.158563,23.9421603 L159.166384,23.380745 L159.163872,6.2544509 C159.142558,4.6200158 158.983715,3.53576606 158.710963,3.03497716 C158.488812,2.62709482 158.051121,2.38061879 157.368809,2.30524022 L157.218844,2.29171003 L156.608206,2.26624754 L156.608206,0.745110657 L173.876834,0.745118826 L180.304411,20.3707 L186.863799,0.745110657 L196.974125,0.745110657 L196.974125,2.24972008 L196.395042,2.30306936 C195.9197,2.35844987 195.547739,2.47121495 195.278413,2.63567401 C194.982461,2.81639218 194.760347,3.1148412 194.611961,3.54595681 C194.498246,3.87633989 194.424054,4.27138266 194.390953,4.72606288 L194.377833,4.95834952 L194.37067,5.31740438 L194.370615,28.3418932 L194.377005,28.705785 C194.409958,29.6078775 194.571152,30.2769501 194.847902,30.7115362 C195.086542,31.0862779 195.536082,31.3255841 196.215508,31.4165103 L196.376388,31.4348535 L196.487011,31.4419 L196.658786,31.4090176 C196.988215,31.3328295 197.260512,31.2185701 197.478055,31.0679586 L197.582274,30.9896315 C197.86396,30.7597689 198.156475,30.3170028 198.445583,29.6629488 C198.669739,29.155837 198.922191,28.4756379 199.201992,27.6240514 L199.373147,27.0925466 L207.892625,-1.56319402e-14 L209.247559,-1.56319402e-14 Z M34.9220768,0.745110657 L35.4828737,0.752032426 C37.7243546,0.807717131 39.5913064,1.19955108 41.08275,1.9325296 C42.7086038,2.73156484 43.8847766,3.81379556 44.6001642,5.17737967 C45.3063389,6.52340346 45.6589719,8.03182376 45.6589719,9.69775188 C45.6589719,11.8010281 45.1357395,13.574548 44.0858229,15.0074917 C43.1690429,16.2587285 41.9359119,17.1629479 40.3884676,17.7187906 L40.0979111,17.8171 L45.1240606,28.1917556 L45.2955392,28.5352241 C45.6842222,29.3040545 46.0202704,29.9000794 46.3017538,30.3211925 C46.603719,30.7729473 46.9028458,31.0712863 47.1910787,31.2212726 C47.3854402,31.3224115 47.6157652,31.3911421 47.8754449,31.4255697 L48.0347223,31.4420948 L48.4650111,31.4573 L48.9331688,31.4457385 C49.6912013,31.4056594 50.2184155,31.1953292 50.536078,30.8284783 C50.8386258,30.4790825 51.0239284,29.9264163 51.0785618,29.1708933 L51.0894901,28.9777866 L51.0958713,28.664205 L51.09595,5.07645385 L51.0893547,4.76131328 C51.0554311,3.98174401 50.8897068,3.37928662 50.6008569,2.95009276 C50.3538729,2.58310608 49.8646196,2.35889602 49.1135317,2.29783555 L48.9485695,2.28725577 L48.3113065,2.27255901 L48.3113065,0.745110657 L68.4860913,0.745110657 L81.6709111,19.9031 L81.6712324,5.0307991 L81.6651152,4.71772761 C81.6300504,3.85715456 81.4436115,3.24799437 81.1241789,2.88389005 C80.8384652,2.55822021 80.3287521,2.35694593 79.5882079,2.29859431 L79.4132124,2.28767408 L78.7507666,2.27273243 L78.7507666,0.745110657 L98.9391351,0.745110657 L98.9391351,2.27099204 L98.2915578,2.28875097 C97.550542,2.33100236 97.0136387,2.53423017 96.6649515,2.88760808 C96.3451813,3.2116801 96.148813,3.70773819 96.0862862,4.3790928 L96.0725597,4.5665382 L96.0640153,4.88840128 L96.0639668,28.6132241 L96.0691225,28.9263762 C96.0891428,29.5097759 96.1678925,29.9759071 96.3010612,30.3223888 C96.4441043,30.6945618 96.6876023,30.9677755 97.0425851,31.1541165 C97.3219763,31.3007772 97.6802385,31.394989 98.1122259,31.4330311 L98.3018621,31.4458851 L98.9391351,31.4607935 L98.9391351,32.9881285 L86.1953261,32.9881285 L86.1953261,31.4615683 L86.8171884,31.4457385 C87.5752209,31.4056594 88.1024351,31.1953292 88.4200976,30.8284783 C88.7226454,30.4790825 88.907948,29.9264163 88.9625814,29.1708933 L88.9735097,28.9777866 L88.9798909,28.664205 L88.9799696,5.07645385 L88.9733743,4.76131328 C88.9394507,3.98174401 88.7737264,3.37928662 88.4848765,2.95009276 C88.2378925,2.58310608 87.7486392,2.35889602 86.9966076,2.29781222 L86.9216111,2.2925 L86.9218314,2.29781719 L86.5583111,2.2799 L86.1953261,2.29814988 L86.1950111,2.2925 L86.0917401,2.29959273 C85.5646142,2.3439989 85.1619873,2.46511964 84.8794108,2.6554124 L84.7896589,2.7213949 L84.7087629,2.79243918 C84.4272336,3.06319883 84.2496921,3.56888558 84.1981744,4.31044677 L84.1885329,4.48576383 L84.182263,4.79808483 L84.182263,33.3945525 L82.810624,33.3945525 L65.9125111,8.841 L65.912724,28.5665542 L65.9193805,28.8882356 C65.9576085,29.7745397 66.1611126,30.4091552 66.5135093,30.8009562 C66.8349753,31.1583679 67.3880611,31.3754789 68.1802336,31.4354024 L68.3672902,31.4464329 L69.014308,31.4599224 L69.014308,32.9881285 L40.0422287,32.9881285 L32.8424111,18.2889 L32.2565111,18.2889 L32.2567977,28.6588525 L32.2614399,28.9653942 C32.2823992,29.6296814 32.3748737,30.1375206 32.5314921,30.4846448 C32.6968108,30.8510521 32.953798,31.0926319 33.317456,31.225622 C33.6225996,31.3372133 34.0242104,31.4089537 34.516408,31.4378986 L34.7328789,31.4476748 L35.4036233,31.458098 L35.4036233,32.9881285 L22.1391233,32.9881285 L22.1391233,31.4596133 L22.778789,31.4469317 C23.6772418,31.4100207 24.2809755,31.1980749 24.605347,30.8355126 C24.9120784,30.4926673 25.0997785,29.9503907 25.1551469,29.2080675 L25.1662244,29.0183187 L25.1727143,28.7093632 L25.1727876,5.07619942 L25.1664594,4.7631467 C25.1301496,3.90150061 24.9369526,3.2853818 24.6035855,2.90703221 C24.302249,2.5650352 23.7609229,2.35531851 22.9724213,2.29730889 L22.7860684,2.28662393 L22.1391233,2.27352057 L22.1391233,0.745110657 L34.9220768,0.745110657 Z M60.7220111,2.2834 L60.345472,2.3713918 L60.3454111,2.2932 L60.2265274,2.30266123 C59.6961968,2.35441544 59.2799344,2.4962114 58.9710338,2.72348175 L58.8720341,2.80239799 L58.7809319,2.88760808 C58.4611617,3.2116801 58.2647934,3.70773819 58.2022666,4.3790928 L58.1885401,4.5665382 L58.1799472,4.88840128 L58.1799472,28.6132241 L58.1851029,28.9263762 C58.2051232,29.5097759 58.2838729,29.9759071 58.4170416,30.3223888 C58.5600847,30.6945618 58.8035827,30.9677755 59.1585655,31.1541165 C59.4379567,31.3007772 59.7962189,31.394989 60.2280539,31.4330276 L60.4176151,31.4458799 L60.7017111,31.4524 L60.9985038,31.4472505 C61.8778324,31.4146299 62.490265,31.2366632 62.8424149,30.9348403 L62.9138941,30.8682761 C63.2267896,30.5510035 63.4195073,30.0126618 63.4751437,29.2512215 L63.4855417,29.0715432 L63.4922567,28.7545214 L63.4919111,5.3438 L61.5028734,2.68950381 C61.3540692,2.509585 61.1927545,2.39220174 61.0225531,2.3320196 L60.9367287,2.3066706 L60.8991111,2.2995 L60.7220111,2.2834 Z M229.710411,3.1605 L229.710411,16.1889 L230.47003,16.1892225 C232.335393,16.1892225 233.661671,15.6853047 234.478322,14.6913386 C235.307167,13.6825299 235.734438,11.9273915 235.734438,9.42680255 C235.734438,7.06758585 235.302834,5.43539989 234.468338,4.52680809 C233.727636,3.72033816 232.440652,3.2629964 230.598548,3.17637893 L230.34391,3.16686736 L229.92191,3.16109029 L229.710411,3.1605 Z M32.2565111,3.1605 L32.2565111,16.1889 L33.0161368,16.1892225 C34.8814999,16.1892225 36.2077771,15.6853047 37.0244281,14.6913386 C37.8532739,13.6825299 38.280544,11.9273915 38.280544,9.42680255 C38.280544,7.06758585 37.8489406,5.43539989 37.0144448,4.52680809 C36.2737428,3.72033816 34.9867588,3.2629964 33.1446541,3.17637893 L32.8900163,3.16686736 L32.4680161,3.16109029 L32.2565111,3.1605 Z" id="Combined-Shape" fill="url(#radialGradient-1)"></path>
            <path d="M142.011995,36.75 C142.662109,36.75 143.259903,36.8611199 143.801917,37.0835362 L144.197915,37.2712193 L144.395309,37.3897405 L144.545628,37.1379432 L144.9269,36.9162284 L145.87893,36.9162284 L146.53173,40.4900452 L145.412717,40.4900452 L145.023106,40.2534356 C144.698092,39.6468497 144.288568,39.1630901 143.792993,38.7973567 C143.318078,38.446871 142.793464,38.2736665 142.206322,38.2736665 C141.256088,38.2736665 140.665676,38.5664444 140.362499,39.142753 C139.946557,39.930594 139.736189,40.8903274 139.736189,42.0277047 C139.736189,43.1188423 139.946357,44.0605425 140.362816,44.8578492 C140.665676,45.4335556 141.256088,45.7263335 142.206322,45.7263335 C142.772501,45.7263335 143.23661,45.5405722 143.620539,45.1586558 L143.703688,45.0618484 L143.70482,42.9142562 C143.70482,42.899454 143.622914,42.8563012 143.37179,42.8328507 L143.200112,42.8215291 L142.538857,42.8172427 L142.538857,41.5706235 L147.703596,41.5706235 L147.703596,42.8172427 L147.258824,42.8172427 C146.778263,42.8172427 146.591667,42.8732929 146.548161,42.9023572 L146.537634,42.9142562 L146.537634,47.0837716 L145.509881,47.0837716 L145.13934,46.8795103 L144.757798,46.2913968 L144.622663,46.4138107 C144.128339,46.8119492 143.540111,47.0679456 142.86441,47.1817282 L142.448545,47.2329315 L142.011995,47.25 C140.408612,47.25 139.127069,46.7627826 138.194911,45.7813976 C137.207661,44.735827 136.709047,43.4765871 136.709047,42.0277047 C136.709047,40.5331736 137.207339,39.2544494 138.195831,38.2176308 C139.127069,37.2372174 140.408612,36.75 142.011995,36.75 Z M91.3898102,36.75 C92.1986185,36.75 92.8490646,36.9463748 93.3261315,37.3544605 C93.8161644,37.7736373 94.0693429,38.3270948 94.0693429,38.9801841 C94.0693429,39.6260259 93.8619867,40.169972 93.4465191,40.5845838 C93.2897619,40.7389917 93.112106,40.8888469 92.913558,41.0344112 L92.6000679,41.2495722 L92.3369418,41.4074842 L92.4117251,41.5156614 L92.8099748,42.0230588 L93.1797852,42.4450585 L93.1797985,41.4598046 L97.567229,41.4598046 L97.567229,42.7064238 L97.1224568,42.7064238 C96.509276,42.7064238 96.2567942,42.8709756 96.2005307,43.2132111 C96.1383693,43.5854233 96.0542,43.9130505 95.9457702,44.1956279 L95.8291702,44.4631714 L95.7238824,44.6481899 L95.7984449,44.7006272 C96.0736069,44.8862011 96.2948171,45.0093219 96.4514503,45.0707831 L96.556651,45.1053302 L96.6366393,45.1168294 C96.8754086,45.1168294 97.0892717,44.9844748 97.2908512,44.6773372 L97.4104259,44.4717413 L97.5695898,44.1660016 L98.857472,44.459778 L98.7129013,44.9346577 C98.2546145,46.4400184 97.3866249,47.25 96.1508218,47.25 C95.3771571,47.25 94.6133329,46.9805241 93.8641745,46.4524268 L93.8046902,46.4079525 L93.3668127,46.6527616 L93.1202303,46.7705526 L92.7147424,46.9427597 C92.1895865,47.1492982 91.5538768,47.25 90.8068291,47.25 C89.5597504,47.25 88.6020521,47.0274957 87.9299163,46.5589887 C87.1017942,45.9686718 86.6698438,45.1848992 86.6698438,44.2440834 C86.6698438,43.5452738 86.9843399,42.8951381 87.5853707,42.306037 C87.7838585,42.111994 88.0087318,41.9288949 88.2598866,41.7564647 L88.656317,41.5057868 L89.0745373,41.2795015 L88.7713357,40.7933506 L88.6027736,40.4886661 L88.5500469,40.3747046 C88.3351906,39.8437579 88.2244599,39.4017327 88.2244599,39.0355936 C88.2244599,38.3323465 88.5217372,37.7511061 89.091056,37.3336789 C89.6314337,36.9374714 90.3984965,36.75 91.3898102,36.75 Z M29.8853134,36.75 C30.4818666,36.75 31.0413467,36.8432919 31.5614572,37.029797 L31.9441223,37.1871521 L32.225973,37.3326054 L32.303887,37.1716984 L32.7030549,36.9162284 L33.5606573,36.9162284 L34.2067781,40.6008641 L33.1888724,40.6008641 L32.8018613,40.3690401 C32.4746267,39.7752739 32.0270025,39.2477225 31.4562187,38.7851683 C31.0313115,38.4412415 30.5771768,38.2736665 30.0796404,38.2736665 C29.6261231,38.2736665 29.2715616,38.389207 28.9981743,38.6159768 C28.7849123,38.7923214 28.6783061,39.0476579 28.6783061,39.4234598 C28.6783061,39.7971843 28.7981893,40.0364649 29.048246,40.196917 C29.4111196,40.4245466 29.8576948,40.6384526 30.3855219,40.8366627 L30.7965887,40.9823465 C31.8916191,41.3378102 32.7759522,41.7645332 33.446133,42.2643465 C34.1443106,42.7730937 34.5081162,43.4646522 34.5081162,44.2994928 C34.5081162,45.2106381 34.0695921,45.96087 33.2368505,46.5113025 C32.4939637,47.0072787 31.5363076,47.25 30.3711309,47.25 C29.7383594,47.25 29.1527939,47.1570399 28.6167098,46.9706295 L28.2239601,46.8132922 L27.882772,46.6364931 L27.7310747,46.8772178 L27.3590623,47.0837716 L26.4128855,47.0837716 L25.648429,43.2329075 L26.6789178,43.2329075 L27.0844361,43.5022383 C27.3416082,44.0888688 27.8086884,44.6382404 28.4933896,45.1475442 C29.0162452,45.5343581 29.6053638,45.7263335 30.2739674,45.7263335 C30.7944141,45.7263335 31.1820512,45.6084359 31.4525969,45.3840232 C31.6586335,45.2136532 31.7724652,44.9020621 31.7724652,44.4103118 C31.7724652,44.1937853 31.6297254,43.9728417 31.2824939,43.7323187 C30.9129844,43.467219 30.4718237,43.2378312 29.9559276,43.0444426 L29.5549445,42.9061555 C28.5948927,42.5891881 27.7487334,42.1838549 27.0122453,41.6856658 C26.3083402,41.1950459 25.942655,40.4999146 25.942655,39.6450977 C25.942655,38.7938364 26.3444708,38.0834911 27.1072017,37.5506685 C27.8656904,37.0151383 28.7955591,36.75 29.8853134,36.75 Z M241.507421,36.75 C242.157535,36.75 242.755329,36.8611199 243.297343,37.0835362 L243.693341,37.2712193 L243.89086,37.3897405 L244.041054,37.1379432 L244.422326,36.9162284 L245.374356,36.9162284 L246.027156,40.4900452 L244.908143,40.4900452 L244.518532,40.2534356 C244.193518,39.6468497 243.783994,39.1630901 243.288419,38.7973567 C242.813504,38.446871 242.288891,38.2736665 241.701748,38.2736665 C240.751514,38.2736665 240.161102,38.5664444 239.857925,39.142753 C239.441983,39.930594 239.231615,40.8903274 239.231615,42.0277047 C239.231615,43.1188423 239.441783,44.0605425 239.858242,44.8578492 C240.161102,45.4335556 240.751514,45.7263335 241.701748,45.7263335 C242.267927,45.7263335 242.732036,45.5405722 243.115965,45.1586558 L243.199239,45.0618484 L243.200246,42.9142562 C243.200246,42.899454 243.11834,42.8563012 242.867216,42.8328507 L242.695538,42.8215291 L242.034284,42.8172427 L242.034284,41.5706235 L247.199022,41.5706235 L247.199022,42.8172427 L246.75425,42.8172427 C246.273689,42.8172427 246.087093,42.8732929 246.043587,42.9023572 L246.03306,42.9142562 L246.03306,47.0837716 L245.005307,47.0837716 L244.634766,46.8795103 L244.253349,46.2913968 L244.118089,46.4138107 C243.623765,46.8119492 243.035537,47.0679456 242.359836,47.1817282 L241.943971,47.2329315 L241.507421,47.25 C239.904038,47.25 238.622495,46.7627826 237.690337,45.7813976 C236.703087,44.735827 236.204473,43.4765871 236.204473,42.0277047 C236.204473,40.5331736 236.702765,39.2544494 237.691257,38.2176308 C238.622495,37.2372174 239.904038,36.75 241.507421,36.75 Z M54.9534969,36.75 C55.6036115,36.75 56.2014055,36.8611199 56.7434194,37.0835362 L57.1394169,37.2712193 L57.3378139,37.3897405 L57.4871298,37.1379432 L57.8684019,36.9162284 L58.8204324,36.9162284 L59.4732326,40.4900452 L58.3542195,40.4900452 L57.9646077,40.2534356 C57.639594,39.6468497 57.2300705,39.1630901 56.7344947,38.7973567 C56.2595799,38.446871 55.7349666,38.2736665 55.1478239,38.2736665 C54.1975905,38.2736665 53.6071783,38.5664444 53.3040012,39.142753 C52.8880592,39.930594 52.6776911,40.8903274 52.6776911,42.0277047 C52.6776911,43.1188423 52.8878594,44.0605425 53.3043186,44.8578492 C53.6071783,45.4335556 54.1975905,45.7263335 55.1478239,45.7263335 C55.7140031,45.7263335 56.1781124,45.5405722 56.5620412,45.1586558 L56.646193,45.0618484 L56.6463217,42.9142562 C56.6463217,42.899454 56.5644159,42.8563012 56.3132925,42.8328507 L56.1416138,42.8215291 L55.4803597,42.8172427 L55.4803597,41.5706235 L60.6450982,41.5706235 L60.6450982,42.8172427 L60.200326,42.8172427 C59.7197651,42.8172427 59.5331692,42.8732929 59.4896634,42.9023572 L59.4791362,42.9142562 L59.4791362,47.0837716 L58.451383,47.0837716 L58.080842,46.8795103 L57.7003032,46.2891114 L57.564165,46.4138107 C57.0698408,46.8119492 56.4816129,47.0679456 55.8059125,47.1817282 L55.390047,47.2329315 L54.9534969,47.25 C53.3501142,47.25 52.0685711,46.7627826 51.1364132,45.7813976 C50.149163,44.735827 49.6505495,43.4765871 49.6505495,42.0277047 C49.6505495,40.5331736 50.1488411,39.2544494 51.1373334,38.2176308 C52.0685711,37.2372174 53.3501142,36.75 54.9534969,36.75 Z M183.290909,36.9162284 L183.933887,40.6562735 L182.489851,40.6562735 L182.211738,39.6997578 C181.90923,38.8993065 181.439664,38.4826522 180.755469,38.3999445 L180.488742,38.3844854 L178.600519,38.3838921 L178.600519,41.0715295 L179.517107,41.0719383 C179.791908,41.0719383 179.988185,40.853675 180.101751,40.2891328 L180.145346,40.0256121 L180.198535,39.6312922 L181.613658,39.6312922 L181.613658,43.9808415 L180.198535,43.9808415 L180.145346,43.5865216 C180.055497,42.92043 179.882339,42.6189052 179.630059,42.5539317 L179.517107,42.5401954 L178.600519,42.5387602 L178.600519,45.6149166 L180.488742,45.6155146 C181.288528,45.6155146 181.836203,45.3114966 182.17709,44.6636129 L182.295319,44.4044599 L182.394692,44.1126026 L182.684178,43.1220886 L184.12154,43.1220886 L183.489992,47.0837716 L174.602813,47.0837716 L174.602813,45.781743 L175.047585,45.781743 C175.528146,45.781743 175.714742,45.7256928 175.758248,45.6966284 L175.768775,38.259861 C175.768775,38.2420985 175.650831,38.1835108 175.264067,38.167134 L174.602813,38.1628476 L174.602813,36.9162284 L183.290909,36.9162284 Z M157.614273,36.9162284 L157.614273,38.1628476 L157.169501,38.1628476 C156.387273,38.1628476 156.041988,38.2755205 155.974915,38.3852884 L155.962494,38.4260894 L155.962494,45.5739106 C155.962494,45.6811463 156.220865,45.8057343 156.896337,45.8320966 L157.614273,45.8371524 L157.614273,47.0837716 L151.4779,47.0837716 L151.4779,45.8371524 L151.922672,45.8371524 C152.7049,45.8371524 153.050185,45.7244795 153.117258,45.6147116 L153.129679,45.5739106 L153.129679,38.4260894 C153.129679,38.3188537 152.871308,38.1942657 152.195836,38.1679034 L151.4779,38.1628476 L151.4779,36.9162284 L157.614273,36.9162284 Z M127.243142,36.9162284 L127.574857,37.06882 L132.33531,42.5456164 L132.33669,38.259861 C132.33669,38.2450589 132.254784,38.201906 132.003661,38.1784556 L131.831982,38.167134 L131.170728,38.1628476 L131.170728,36.9162284 L135.363831,36.9162284 L135.363831,38.1628476 L134.919059,38.1628476 C134.438498,38.1628476 134.251902,38.2188977 134.208396,38.2479621 L134.197869,38.259861 L134.197869,47.0837716 L133.170116,47.0837716 L132.836437,46.9289042 L127.104788,40.2442126 L127.104934,45.740139 C127.104934,45.7549411 127.186839,45.798094 127.437963,45.8215444 L127.609642,45.832866 L128.270896,45.8371524 L128.270896,47.0837716 L124.077792,47.0837716 L124.077792,45.8371524 L124.522564,45.8371524 C125.003125,45.8371524 125.189721,45.7811023 125.233227,45.7520379 L125.243754,45.740139 L125.243754,38.259861 C125.243754,38.2420985 125.12581,38.1835108 124.739046,38.167134 L124.077792,38.1628476 L124.077792,36.9162284 L127.243142,36.9162284 Z M219.798915,36.9162284 L219.798915,38.1628476 L219.354142,38.1628476 C218.571915,38.1628476 218.226629,38.2755205 218.159556,38.3852884 L218.147135,38.4260894 L218.147135,45.5739106 C218.147135,45.6811463 218.405506,45.8057343 219.080979,45.8320966 L219.798915,45.8371524 L219.798915,47.0837716 L213.662541,47.0837716 L213.662541,45.8371524 L214.107313,45.8371524 C214.889541,45.8371524 215.234826,45.7244795 215.301899,45.6147116 L215.314321,45.5739106 L215.314321,38.4260894 C215.314321,38.3188537 215.055949,38.1942657 214.380477,38.1679034 L213.662541,38.1628476 L213.662541,36.9162284 L219.798915,36.9162284 Z M204.2938,36.9162284 C205.589675,36.9162284 206.66138,37.1330923 207.507521,37.5754106 C208.429648,38.0574504 208.916602,38.8211131 208.916602,39.8113261 C208.916602,40.8110718 208.388556,41.5754772 207.390383,42.0570484 C207.170931,42.1579731 206.938471,42.2440735 206.693074,42.3154858 L206.287591,42.4153483 L208.528144,45.2890121 C208.720146,45.5365618 208.94315,45.6976632 209.207934,45.7775585 L209.414524,45.8223359 L209.637792,45.8371524 L210.082564,45.8371524 L210.082564,47.0837716 L207.014378,47.0837716 L206.66892,46.9145882 L203.303169,42.6507451 L202.989605,42.6507451 L202.989629,45.740139 C202.989629,45.7549411 203.071535,45.798094 203.322658,45.8215444 L203.494337,45.832866 L204.155591,45.8371524 L204.155591,47.0837716 L198.990852,47.0837716 L198.990852,45.8371524 L199.435624,45.8371524 C199.916185,45.8371524 200.102781,45.7811023 200.146287,45.7520379 L200.156814,45.740139 L200.156814,38.259861 C200.156814,38.2420985 200.03887,38.1835108 199.652106,38.167134 L198.990852,38.1628476 L198.990852,36.9162284 L204.2938,36.9162284 Z M21.6108421,36.9162284 L22.2538197,40.6562735 L20.809784,40.6562735 L20.5316701,39.6997578 C20.2291626,38.8993065 19.7595968,38.4826522 19.0754012,38.3999445 L18.8086741,38.3844854 L16.92136,38.3838921 L16.92136,41.0715295 L17.8370391,41.0719383 C18.1118405,41.0719383 18.3081177,40.853675 18.4216833,40.2891328 L18.4652781,40.0256121 L18.5184675,39.6312922 L19.9335909,39.6312922 L19.9335909,43.9808415 L18.5184675,43.9808415 L18.4652781,43.5865216 C18.3754299,42.92043 18.2022718,42.6189052 17.9499913,42.5539317 L17.8370391,42.5401954 L16.92136,42.5387602 L16.92136,45.6149166 L18.8086741,45.6155146 C19.6084604,45.6155146 20.1561354,45.3114966 20.4970231,44.6636129 L20.6152513,44.4044599 L20.7146244,44.1126026 L21.004111,43.1220886 L22.4414727,43.1220886 L21.8099249,47.0837716 L12.9227458,47.0837716 L12.9227458,45.781743 L13.367518,45.781743 C13.8480789,45.781743 14.0346749,45.7256928 14.0781806,45.6966284 L14.0887078,38.259861 C14.0887078,38.2420985 13.9707635,38.1835108 13.5839999,38.167134 L12.9227458,38.1628476 L12.9227458,36.9162284 L21.6108421,36.9162284 Z M65.0585011,36.9162284 L65.3902159,37.06882 L70.1517022,42.5456164 L70.1520485,38.259861 C70.1520485,38.2450589 70.0701427,38.201906 69.8190192,38.1784556 L69.6473406,38.167134 L68.9860864,38.1628476 L68.9860864,36.9162284 L73.17919,36.9162284 L73.17919,38.1628476 L72.7344178,38.1628476 C72.2538568,38.1628476 72.0672609,38.2188977 72.0237552,38.2479621 L72.013228,38.259861 L72.013228,47.0837716 L70.9854747,47.0837716 L70.6517952,46.9289042 L64.9189568,40.2442126 L64.9202923,45.740139 C64.9202923,45.7549411 65.0021981,45.798094 65.2533216,45.8215444 L65.4250002,45.832866 L66.0862544,45.8371524 L66.0862544,47.0837716 L61.8931508,47.0837716 L61.8931508,45.8371524 L62.337923,45.8371524 C62.818484,45.8371524 63.0050799,45.7811023 63.0485856,45.7520379 L63.0591128,45.740139 L63.0591128,38.259861 C63.0591128,38.2420985 62.9411685,38.1835108 62.5544049,38.167134 L61.8931508,38.1628476 L61.8931508,36.9162284 L65.0585011,36.9162284 Z M4.62280283,36.9162284 C6.30095262,36.9162284 7.69017831,37.3321514 8.77638038,38.1713777 C9.99262177,39.1097593 10.6058947,40.4469675 10.6058947,42.1385237 C10.6058947,43.754322 10.0928289,44.9664649 9.05809403,45.725135 C7.95408812,46.5296007 6.7110666,46.9773958 5.33807596,47.0669742 L4.81712984,47.0837716 L1.10667031e-12,47.0837716 L1.10667031e-12,45.8371524 L0.444772244,45.8371524 C0.925333179,45.8371524 1.11192908,45.7811023 1.15543483,45.7520379 L1.16596202,45.740139 L1.16596202,38.259861 C1.16596202,38.2420985 1.04801768,38.1835108 0.661254121,38.167134 L1.10667031e-12,38.1628476 L1.10667031e-12,36.9162284 L4.62280283,36.9162284 Z M164.553927,36.9162284 L164.885642,37.06882 L169.647253,42.5456164 L169.647475,38.259861 C169.647475,38.2450589 169.565569,38.201906 169.314445,38.1784556 L169.142767,38.167134 L168.481513,38.1628476 L168.481513,36.9162284 L172.674616,36.9162284 L172.674616,38.1628476 L172.229844,38.1628476 C171.749283,38.1628476 171.562687,38.2188977 171.519181,38.2479621 L171.508654,38.259861 L171.508654,47.0837716 L170.480901,47.0837716 L170.147221,46.9289042 L164.414508,40.2442126 L164.415718,45.740139 C164.415718,45.7549411 164.497624,45.798094 164.748748,45.8215444 L164.920426,45.832866 L165.58168,45.8371524 L165.58168,47.0837716 L161.388577,47.0837716 L161.388577,45.8371524 L161.833349,45.8371524 C162.31391,45.8371524 162.500506,45.7811023 162.544012,45.7520379 L162.554539,45.740139 L162.554539,38.259861 C162.554539,38.2420985 162.436595,38.1835108 162.049831,38.167134 L161.388577,38.1628476 L161.388577,36.9162284 L164.553927,36.9162284 Z M121.106268,36.9162284 L121.749246,40.6562735 L120.30521,40.6562735 L120.027096,39.6997578 C119.724589,38.8993065 119.255023,38.4826522 118.570827,38.3999445 L118.3041,38.3844854 L116.416911,38.3838921 L116.416911,41.0715295 L117.332465,41.0719383 C117.607267,41.0719383 117.803544,40.853675 117.917109,40.2891328 L117.960704,40.0256121 L118.013894,39.6312922 L119.429017,39.6312922 L119.429017,43.9808415 L118.013894,43.9808415 L117.960704,43.5865216 C117.870856,42.92043 117.697698,42.6189052 117.445417,42.5539317 L117.332465,42.5401954 L116.416911,42.5387602 L116.416911,45.6149166 L118.3041,45.6155146 C119.103887,45.6155146 119.651562,45.3114966 119.992449,44.6636129 L120.110677,44.4044599 L120.21005,44.1126026 L120.499537,43.1220886 L121.936899,43.1220886 L121.305351,47.0837716 L112.418172,47.0837716 L112.418172,45.781743 L112.862944,45.781743 C113.343505,45.781743 113.530101,45.7256928 113.573607,45.6966284 L113.584134,38.259861 C113.584134,38.2420985 113.46619,38.1835108 113.079426,38.167134 L112.418172,38.1628476 L112.418172,36.9162284 L121.106268,36.9162284 Z M195.727838,36.9162284 L196.370815,40.6562735 L194.92678,40.6562735 L194.648666,39.6997578 C194.346158,38.8993065 193.876593,38.4826522 193.192397,38.3999445 L192.92567,38.3844854 L191.03635,38.3838921 L191.03635,41.0715295 L191.954035,41.0719383 C192.228836,41.0719383 192.425113,40.853675 192.538679,40.2891328 L192.582274,40.0256121 L192.635463,39.6312922 L194.050587,39.6312922 L194.050587,43.9808415 L192.635463,43.9808415 L192.582274,43.5865216 C192.492426,42.92043 192.319267,42.6189052 192.066987,42.5539317 L191.954035,42.5401954 L191.03635,42.5387602 L191.03635,45.6149166 L192.92567,45.6155146 C193.725456,45.6155146 194.273131,45.3114966 194.614019,44.6636129 L194.732247,44.4044599 L194.83162,44.1126026 L195.121107,43.1220886 L196.558468,43.1220886 L195.926921,47.0837716 L187.039741,47.0837716 L187.039741,45.781743 L187.484514,45.781743 C187.965075,45.781743 188.151671,45.7256928 188.195176,45.6966284 L188.205703,38.259861 C188.205703,38.2420985 188.087759,38.1835108 187.700996,38.167134 L187.039741,38.1628476 L187.039741,36.9162284 L195.727838,36.9162284 Z M45.6819189,36.9162284 L45.6819189,38.1628476 L45.2371467,38.1628476 C44.454919,38.1628476 44.1096335,38.2755205 44.0425606,38.3852884 L44.0301394,38.4260894 L44.0301394,45.5739106 C44.0301394,45.6811463 44.2885107,45.8057343 44.963983,45.8320966 L45.6819189,45.8371524 L45.6819189,47.0837716 L39.5455453,47.0837716 L39.5455453,45.8371524 L39.9903176,45.8371524 C40.7725453,45.8371524 41.1178307,45.7244795 41.1849037,45.6147116 L41.1973249,45.5739106 L41.1973249,38.4260894 C41.1973249,38.3188537 40.9389536,38.1942657 40.2634813,38.1679034 L39.5455453,38.1628476 L39.5455453,36.9162284 L45.6819189,36.9162284 Z M226.738568,36.9162284 L227.070283,37.06882 L231.830861,42.5456164 L231.832116,38.259861 C231.832116,38.2450589 231.75021,38.201906 231.499087,38.1784556 L231.327408,38.167134 L230.666154,38.1628476 L230.666154,36.9162284 L234.859257,36.9162284 L234.859257,38.1628476 L234.414485,38.1628476 C233.933924,38.1628476 233.747328,38.2188977 233.703823,38.2479621 L233.693295,38.259861 L233.693295,47.0837716 L232.665542,47.0837716 L232.331863,46.9289042 L226.600339,40.246498 L226.60036,45.740139 C226.60036,45.7549411 226.682266,45.798094 226.933389,45.8215444 L227.105068,45.832866 L227.766322,45.8371524 L227.766322,47.0837716 L223.573218,47.0837716 L223.573218,45.8371524 L224.01799,45.8371524 C224.498551,45.8371524 224.685147,45.7811023 224.728653,45.7520379 L224.73918,45.740139 L224.73918,38.259861 C224.73918,38.2420985 224.621236,38.1835108 224.234472,38.167134 L223.573218,38.1628476 L223.573218,36.9162284 L226.738568,36.9162284 Z M90.1397669,42.8015819 L90.0236473,42.9437867 L89.9249758,43.0942131 C89.7757278,43.3495483 89.6969854,43.6938159 89.6969854,44.1332644 C89.6969854,44.6933986 89.8157991,45.0457296 90.0225725,45.2226047 C90.3280096,45.4838773 90.7127314,45.6155146 91.1954831,45.6155146 C91.6328877,45.6155146 91.97159,45.5672266 92.2071265,45.4776803 L92.3327246,45.4258865 L92.4748212,45.3543803 L92.3468355,45.2455451 C91.5541856,44.5398856 90.8639228,43.790528 90.2765565,42.997454 L90.1397669,42.8015819 Z M3.99850248,38.3838921 L3.99850248,45.6149166 L4.81712984,45.6155146 C5.61155878,45.6155146 6.31522884,45.3265914 6.94836412,44.7357724 C7.34979769,44.3637682 7.57875316,43.498765 7.57875316,42.1385237 C7.57875316,40.7009076 7.2896665,39.728248 6.74668605,39.2018504 C6.26400685,38.7339124 5.68078862,38.4676408 4.98193551,38.401113 L4.62280283,38.3844854 L3.99850248,38.3838921 Z M202.989605,38.3838921 L202.989605,41.181229 L204.099473,41.1827573 C204.695495,41.1827573 205.126685,41.0751781 205.395768,40.8798847 C205.728839,40.6356751 205.889461,40.2954553 205.889461,39.8113261 C205.889461,39.3271969 205.728839,38.9869771 205.39653,38.7433254 C205.137134,38.5539801 204.811065,38.4379297 204.412285,38.3990834 L204.099473,38.3844854 L202.989605,38.3838921 Z M91.6813007,38.2736665 C91.539551,38.2736665 91.4660918,38.3015943 91.4287451,38.3441898 C91.3172934,38.4713049 91.2516014,38.6960782 91.2516014,39.0355936 C91.2516014,39.3635366 91.278326,39.5921405 91.3198432,39.7046015 L91.4224168,39.9566577 L91.4785313,40.0842342 L91.5701369,40.0183719 C91.6412329,39.9621126 91.7061886,39.9060942 91.7649164,39.8505122 L91.9223288,39.6852707 C92.0439249,39.5350283 92.1109999,39.3055229 92.1109999,38.9801841 C92.1109999,38.7025321 92.062825,38.4827503 91.97019,38.3110088 L91.9032298,38.2898221 C91.8577178,38.2813251 91.7863777,38.2736665 91.6813007,38.2736665 Z" id="Combined-Shape" fill="#000000"></path>
        </g>
    </g>
</svg>